<?xml version="1.0" encoding="UTF-8"?>

<!DOCTYPE svg
  PUBLIC "-//W3C//DTD SVG 1.0//EN" "http://www.w3.org/TR/2001/REC-SVG-20010904/DTD/svg10.dtd">
<svg xmlns="http://www.w3.org/2000/svg" xmlns:xlink="http://www.w3.org/1999/xlink" fill-rule="evenodd" height="1.6716666666666666in" preserveAspectRatio="none" stroke-linecap="round" viewBox="0 0 5659 1003" width="9.431666666666667in">
   <style type="text/css">
.brush0 { fill: rgb(255,255,255); }
.pen0 { stroke: rgb(0,0,0); stroke-width: 1; stroke-linejoin: round; }
.font0 { font-weight: bold; font-size: 9px; font-family: System, sans-serif; }
.brush1 { fill: rgb(192,192,192); }
.font1 { font-size: 39px; font-family: Arial; }
.brush2 { fill: rgb(0,0,0); }
.pen1 { stroke: rgb(192,192,192); stroke-width: 1; stroke-linejoin: round; }
.font2 { font-weight: bold; font-size: 9px; font-family: System, sans-serif; }
.font3 { font-size: 40px; font-family: Arial; }
</style>
   <g>
      <text class="font1" fill="rgb(0,0,0)" stroke="none" style="dominant-baseline: text-before-edge;" x="21 33 58 80 93 117 142 165 189 202" xml:lang="en" xml:space="preserve" y="8">InstanceID</text><text class="font1" fill="rgb(0,0,0)" stroke="none" style="dominant-baseline: text-before-edge;" x="339 369 384 409 433 443 468 506 530 563 587 612 637 661 676 701" xml:lang="en" xml:space="preserve" y="8">Problem_Rendered</text><text class="font1" fill="rgb(0,0,0)" stroke="none" style="dominant-baseline: text-before-edge;" x="847 874 899 921 946 969 993 1025 1050 1075 1097 1122 1147" xml:lang="en" xml:space="preserve" y="8">Focus_Concept</text><text class="font1" fill="rgb(0,0,0)" stroke="none" style="dominant-baseline: text-before-edge;" x="1679 1709 1724 1748 1773 1783 1807 1845 1870 1902 1912 1937 1959 1984 2012 2036 2068 2091 2116" xml:lang="en" xml:space="preserve" y="8">Problem_CloseToUser</text><text class="font1" fill="rgb(0,0,0)" stroke="none" style="dominant-baseline: text-before-edge;" x="3080 3109 3124 3149 3174 3183 3208 3246 3271 3295 3320 3345 3369 3402 3426 3441 3479 3504" xml:lang="en" xml:space="preserve" y="8">Problem_LongNormal</text></g>
   <g>
      <text class="font1" fill="rgb(0,0,0)" stroke="none" style="dominant-baseline: text-before-edge;" x="11 35 60 85 109 134 159" xml:lang="en" xml:space="preserve" y="64">3875903</text></g>
   <g>
      <text class="font1" fill="rgb(0,0,0)" stroke="none" style="dominant-baseline: text-before-edge;" x="257 290 314 327 354 379 417 426 436 457 469 501 511 534 546 571 586 607 619 644 656" xml:lang="en" xml:space="preserve" y="64">No Family History of </text><text class="font1" fill="rgb(0,0,0)" stroke="none" style="dominant-baseline: text-before-edge;" x="257 287 297 306 331 346 371 380 403 415 445 467 479 504 542 567 579 592 624 648 663 688 713 722" xml:lang="en" xml:space="preserve" y="119">Allergic Asthma, Chronic</text></g>
   <g>
      <text class="font1" fill="rgb(0,0,0)" stroke="none" style="dominant-baseline: text-before-edge;" x="821 846 870 895 920 944 969 994 1018 1043" xml:lang="en" xml:space="preserve" y="64">389145006|</text><text class="font1" fill="rgb(0,0,0)" stroke="none" style="dominant-baseline: text-before-edge;" x="821 851 860 870 895 910 934 944 966 979 1003 1026 1038 1063 1101" xml:lang="en" xml:space="preserve" y="119">Allergic asthma</text></g>
   <g>
      <text class="font1" fill="rgb(0,0,0)" stroke="none" style="dominant-baseline: text-before-edge;" x="1198 1223 1247 1272 1297 1321 1346 1371 1395 1420 1431 1463 1488 1512 1525 1549 1572 1584 1599 1631 1656 1681 1705 1730 1755 1779 1804 1816 1829 1856 1866 1890 1915 1925 1949 1974 1985" xml:lang="en" xml:space="preserve" y="64">413350009|Context-Dependent Finding|:</text><text class="font1" fill="rgb(0,0,0)" stroke="none" style="dominant-baseline: text-before-edge;" x="1198 1210 1223 1235 1247 1260 1272 1284 1297 1309 1321 1334 1346 1358 1371 1383 1395 1408 1420 1432 1445 1457 1469 1494 1519 1543 1568 1593 1617 1642 1667 1691 1702 1730 1739 1764 1789 1798 1823 1847 1860 1892 1917 1941 1954 1978 2001 2013 2024" xml:lang="en" xml:space="preserve" y="119">                      408729009|Finding Context|=</text><text class="font1" fill="rgb(0,0,0)" stroke="none" style="dominant-baseline: text-before-edge;" x="1198 1210 1223 1235 1247 1260 1272 1284 1297 1309 1321 1334 1346 1358 1371 1383 1395 1408 1420 1432 1445 1457 1469 1482 1494 1506 1519 1531 1543 1556 1580 1605 1630 1654 1679 1704 1728 1753 1778 1789 1818 1843 1867 1899 1924 1936 1965 1990 2013 2037 2062 2074 2085" xml:lang="en" xml:space="preserve" y="174">                             410516002|Known Absent|,</text><text class="font1" fill="rgb(0,0,0)" stroke="none" style="dominant-baseline: text-before-edge;" x="1198 1210 1223 1235 1247 1260 1272 1284 1297 1309 1321 1334 1346 1358 1371 1383 1395 1408 1420 1432 1445 1457 1469 1494 1519 1543 1568 1593 1617 1642 1667 1691 1702 1730 1755 1793 1817 1842 1857 1882 1891 1904 1936 1961 1985 1998 2022 2045 2057 2068" xml:lang="en" xml:space="preserve" y="230">                      408731000|Temporal Context|=</text><text class="font1" fill="rgb(0,0,0)" stroke="none" style="dominant-baseline: text-before-edge;" x="1198 1210 1223 1235 1247 1260 1272 1284 1297 1309 1321 1334 1346 1358 1371 1383 1395 1408 1420 1432 1445 1457 1469 1482 1494 1506 1519 1531 1543 1556 1580 1605 1630 1654 1679 1704 1728 1753 1778 1789 1821 1845 1860 1875 1900 1925 1937 1949 1974 1989 2001 2031 2056 2078 2090 2101" xml:lang="en" xml:space="preserve" y="285">                             410511007|Current or Past|,</text><text class="font1" fill="rgb(0,0,0)" stroke="none" style="dominant-baseline: text-before-edge;" x="1198 1210 1223 1235 1247 1260 1272 1284 1297 1309 1321 1334 1346 1358 1371 1383 1395 1408 1420 1432 1445 1457 1469 1494 1519 1543 1568 1593 1617 1642 1667 1691 1702 1732 1756 1781 1791 1816 1838 1851 1863 1895 1920 1930 1954 1967 1976 2001 2026 2048 2073 2082 2107 2119 2152 2176 2201 2213 2238 2260 2273 2283" xml:lang="en" xml:space="preserve" y="340">                      408732007|Subject Relationship Context|=</text><text class="font1" fill="rgb(0,0,0)" stroke="none" style="dominant-baseline: text-before-edge;" x="1198 1210 1223 1235 1247 1260 1272 1284 1297 1309 1321 1334 1346 1358 1371 1383 1395 1408 1420 1432 1445 1457 1469 1482 1494 1506 1519 1531 1543 1556 1580 1605 1630 1654 1679 1704 1728 1753 1778 1789 1818 1843 1858 1880 1905 1930 1942 1952 1976 1989 2001 2026 2050 2063 2090 2115 2153 2162 2172 2193 2204 2216" xml:lang="en" xml:space="preserve" y="395">                             303071001|Person in the Family|, </text><text class="font1" fill="rgb(0,0,0)" stroke="none" style="dominant-baseline: text-before-edge;" x="1198 1210 1223 1235 1247 1260 1272 1284 1297 1309 1321 1334 1346 1358 1371 1383 1395 1408 1420 1432 1445 1457 1469 1494 1519 1543 1568 1593 1617 1642 1667 1691 1702 1732 1754 1777 1801 1824 1834 1858 1871 1895 1920 1932 1960 1969 1994 2019 2028 2053 2078 2088" xml:lang="en" xml:space="preserve" y="450">                      246090004|Associated Finding|=</text><text class="font1" fill="rgb(0,0,0)" stroke="none" style="dominant-baseline: text-before-edge;" x="1198 1210 1223 1235 1247 1260 1272 1284 1297 1309 1321 1334 1346 1358 1371 1383 1395 1408 1420 1432 1445 1457 1469 1482 1494 1506 1519 1531 1543 1556 1580 1605 1630 1654 1679 1704 1728 1753 1778 1789 1818 1828 1837 1862 1877 1902 1911 1934 1946 1971 1993 2006 2030 2068 2093 2104 2116" xml:lang="en" xml:space="preserve" y="505">                             389145006|Allergic asthma|: </text><text class="font1" fill="rgb(0,0,0)" stroke="none" style="dominant-baseline: text-before-edge;" x="1198 1210 1223 1235 1247 1260 1272 1284 1297 1309 1321 1334 1346 1358 1371 1383 1395 1408 1420 1432 1445 1457 1469 1482 1494 1506 1519 1531 1543 1556 1568 1580 1593 1605 1617 1630 1642 1654 1667 1679 1691 1704 1716 1741 1765 1790 1815 1839 1864 1889 1913 1938 1949 1971 1996 2021 2036 2058 2083 2094 2119 2144 2169 2193 2218 2243 2267 2292 2317 2341 2352 2375 2399 2414 2439 2464 2473" xml:lang="en" xml:space="preserve" y="561">                                          260908002|course|=191268006|chronic</text></g>
   <g>
      <text class="font1" fill="rgb(0,0,0)" stroke="none" style="dominant-baseline: text-before-edge;" x="2625 2650 2674 2699 2724 2748 2773 2798 2822 2847 2858 2890 2915 2939 2952 2976 2999 3011 3026 3058 3083 3108 3132 3157 3182 3206 3231 3243 3256 3283 3293 3317 3342 3352 3376 3401 3412" xml:lang="en" xml:space="preserve" y="64">413350009|Context-Dependent Finding|:</text><text class="font1" fill="rgb(0,0,0)" stroke="none" style="dominant-baseline: text-before-edge;" x="2625 2637 2650 2662 2674 2687 2699 2711 2724 2736 2748 2761 2773 2785 2798 2810 2822 2835 2847 2859 2872 2884 2896 2921 2946 2970 2995 3020 3044 3069 3094 3118 3129 3157 3166 3191 3216 3225 3250 3275 3287 3319 3344 3368 3381 3405 3428 3440 3451" xml:lang="en" xml:space="preserve" y="119">                      408729009|Finding Context|=</text><text class="font1" fill="rgb(0,0,0)" stroke="none" style="dominant-baseline: text-before-edge;" x="2625 2637 2650 2662 2674 2687 2699 2711 2724 2736 2748 2761 2773 2785 2798 2810 2822 2835 2847 2859 2872 2884 2896 2909 2921 2933 2946 2958 2970 2983 3007 3032 3057 3081 3106 3131 3155 3180 3205 3216 3245 3270 3294 3326 3351 3363 3393 3417 3440 3464 3489 3501 3512" xml:lang="en" xml:space="preserve" y="174">                             410516002|Known Absent|,</text><text class="font1" fill="rgb(0,0,0)" stroke="none" style="dominant-baseline: text-before-edge;" x="2625 2637 2650 2662 2674 2687 2699 2711 2724 2736 2748 2761 2773 2785 2798 2810 2822 2835 2847 2859 2872 2884 2896 2921 2946 2970 2995 3020 3044 3069 3094 3118 3129 3157 3182 3220 3245 3269 3284 3309 3319 3331 3363 3388 3412 3425 3449 3472 3484 3495" xml:lang="en" xml:space="preserve" y="230">                      408731000|Temporal Context|=</text><text class="font1" fill="rgb(0,0,0)" stroke="none" style="dominant-baseline: text-before-edge;" x="2625 2637 2650 2662 2674 2687 2699 2711 2724 2736 2748 2761 2773 2785 2798 2810 2822 2835 2847 2859 2872 2884 2896 2909 2921 2933 2946 2958 2970 2983 3007 3032 3057 3081 3106 3131 3155 3180 3205 3216 3248 3272 3287 3302 3327 3352 3364 3376 3401 3416 3428 3458 3483 3505 3517 3528" xml:lang="en" xml:space="preserve" y="285">                             410511007|Current or Past|,</text><text class="font1" fill="rgb(0,0,0)" stroke="none" style="dominant-baseline: text-before-edge;" x="2625 2637 2650 2662 2674 2687 2699 2711 2724 2736 2748 2761 2773 2785 2798 2810 2822 2835 2847 2859 2872 2884 2896 2921 2946 2970 2995 3020 3044 3069 3094 3118 3129 3159 3183 3208 3218 3243 3265 3278 3290 3322 3347 3357 3381 3394 3403 3428 3453 3475 3500 3509 3534 3546 3579 3603 3628 3640 3665 3687 3700 3711" xml:lang="en" xml:space="preserve" y="340">                      408732007|Subject Relationship Context|=</text><text class="font1" fill="rgb(0,0,0)" stroke="none" style="dominant-baseline: text-before-edge;" x="2625 2637 2650 2662 2674 2687 2699 2711 2724 2736 2748 2761 2773 2785 2798 2810 2822 2835 2847 2859 2872 2884 2896 2909 2921 2933 2946 2958 2970 2983 3007 3032 3057 3081 3106 3131 3155 3180 3205 3216 3245 3270 3285 3307 3332 3357 3369 3379 3403 3416 3428 3453 3477 3490 3517 3542 3580 3589 3599 3620 3631 3643" xml:lang="en" xml:space="preserve" y="395">                             303071001|Person in the Family|, </text><text class="font1" fill="rgb(0,0,0)" stroke="none" style="dominant-baseline: text-before-edge;" x="2625 2637 2650 2662 2674 2687 2699 2711 2724 2736 2748 2761 2773 2785 2798 2810 2822 2835 2847 2859 2872 2884 2896 2921 2946 2970 2995 3020 3044 3069 3094 3118 3129 3159 3181 3204 3228 3251 3261 3285 3298 3322 3347 3359 3387 3396 3421 3446 3455 3480 3505 3515" xml:lang="en" xml:space="preserve" y="450">                      246090004|Associated Finding|=</text><text class="font1" fill="rgb(0,0,0)" stroke="none" style="dominant-baseline: text-before-edge;" x="2625 2637 2650 2662 2674 2687 2699 2711 2724 2736 2748 2761 2773 2785 2798 2810 2822 2835 2847 2859 2872 2884 2896 2909 2921 2933 2946 2958 2970 2983 3007 3032 3057 3081 3106 3131 3155 3180 3205 3216 3245 3255 3264 3289 3304 3329 3338 3361 3373 3398 3420 3433 3457 3495 3520 3531 3543" xml:lang="en" xml:space="preserve" y="505">                             389145006|Allergic asthma|: </text><text class="font1" fill="rgb(0,0,0)" stroke="none" style="dominant-baseline: text-before-edge;" x="2625 2637 2650 2662 2674 2687 2699 2711 2724 2736 2748 2761 2773 2785 2798 2810 2822 2835 2847 2859 2872 2884 2896 2909 2921 2933 2946 2958 2970 2983 2995 3007 3020 3032 3044 3057 3069 3094 3118 3143 3168 3192 3217 3242 3266 3291 3302 3327 3349 3372 3396 3419 3428 3453 3465 3490 3515 3527 3565 3590 3605 3630 3654 3679 3689 3713 3738 3759 3770" xml:lang="en" xml:space="preserve" y="561">                                    116676008|associated morphology|=</text><text class="font1" fill="rgb(0,0,0)" stroke="none" style="dominant-baseline: text-before-edge;" x="2625 2637 2650 2662 2674 2687 2699 2711 2724 2736 2748 2761 2773 2785 2798 2810 2822 2835 2847 2859 2872 2884 2896 2909 2921 2933 2946 2958 2970 2983 2995 3007 3020 3032 3044 3057 3069 3081 3094 3106 3118 3131 3143 3155 3168 3180 3205 3229 3254 3279 3304 3328 3353 3378 3388 3413 3438 3460 3472 3487 3512 3535 3547 3557 3581 3606 3617" xml:lang="en" xml:space="preserve" y="616">                                             26036001|obstruction|,</text><text class="font1" fill="rgb(0,0,0)" stroke="none" style="dominant-baseline: text-before-edge;" x="2625 2637 2650 2662 2674 2687 2699 2711 2724 2736 2748 2761 2773 2785 2798 2810 2822 2835 2847 2859 2872 2884 2896 2909 2921 2933 2946 2958 2970 2983 2995 3007 3020 3032 3044 3057 3069 3094 3118 3143 3168 3192 3217 3242 3266 3291 3302 3324 3349 3374 3389 3411 3436 3447" xml:lang="en" xml:space="preserve" y="671">                                    260908002|course|=</text><text class="font1" fill="rgb(0,0,0)" stroke="none" style="dominant-baseline: text-before-edge;" x="2625 2637 2650 2662 2674 2687 2699 2711 2724 2736 2748 2761 2773 2785 2798 2810 2822 2835 2847 2859 2872 2884 2896 2909 2921 2933 2946 2958 2970 2983 2995 3007 3020 3032 3044 3057 3069 3081 3094 3106 3118 3131 3143 3155 3168 3180 3205 3229 3254 3279 3304 3328 3353 3378 3402 3413 3435 3460 3475 3500 3524 3534 3557" xml:lang="en" xml:space="preserve" y="726">                                             191268006|chronic,</text><text class="font1" fill="rgb(0,0,0)" stroke="none" style="dominant-baseline: text-before-edge;" x="2625 2637 2650 2662 2674 2687 2699 2711 2724 2736 2748 2761 2773 2785 2798 2810 2822 2835 2847 2859 2872 2884 2896 2909 2921 2933 2946 2958 2970 2983 2995 3007 3020 3032 3044 3057 3069 3094 3118 3143 3168 3192 3217 3242 3266 3277 3302 3327 3351 3364 3376 3401 3411" xml:lang="en" xml:space="preserve" y="781">                                    42752001|due to|=</text><text class="font1" fill="rgb(0,0,0)" stroke="none" style="dominant-baseline: text-before-edge;" x="2625 2637 2650 2662 2674 2687 2699 2711 2724 2736 2748 2761 2773 2785 2798 2810 2822 2835 2847 2859 2872 2884 2896 2909 2921 2933 2946 2958 2970 2983 2995 3007 3020 3032 3044 3057 3069 3081 3094 3106 3118 3131 3143 3155 3168 3192 3217 3242 3266 3291 3316 3341 3365 3390 3401 3425 3435 3445 3469 3484 3509 3519 3541 3553 3568 3593 3618 3640 3653 3662 3687 3712 3722" xml:lang="en" xml:space="preserve" y="837">                                            419076005|allergic reaction|,</text><text class="font1" fill="rgb(0,0,0)" stroke="none" style="dominant-baseline: text-before-edge;" x="2625 2637 2650 2662 2674 2687 2699 2711 2724 2736 2748 2761 2773 2785 2798 2810 2822 2835 2847 2859 2872 2884 2896 2909 2921 2933 2946 2958 2970 2983 2995 3007 3020 3032 3044 3057 3081 3106 3131 3155 3180 3205 3229 3254 3279 3290 3302 3312 3337 3361 3371 3396 3420 3433 3455 3465 3477 3502 3513" xml:lang="en" xml:space="preserve" y="892">                                   363698007|finding site|=</text><text class="font1" fill="rgb(0,0,0)" stroke="none" style="dominant-baseline: text-before-edge;" x="2625 2637 2650 2662 2674 2687 2699 2711 2724 2736 2748 2761 2773 2785 2798 2810 2822 2835 2847 2859 2872 2884 2896 2909 2921 2933 2946 2958 2970 2983 2995 3007 3020 3032 3044 3057 3069 3081 3094 3106 3118 3131 3143 3155 3168 3192 3217 3242 3266 3291 3316 3327 3351 3366 3391 3416 3438 3463 3472 3497 3507 3519 3542 3554 3569 3594 3616 3628 3653 3668 3693" xml:lang="en" xml:space="preserve" y="947">                                            955009|bronchial structure|</text></g>
   <g>
      <line class="pen0" fill="none" x1="0" x2="0" y1="3" y2="62"/>
      <line class="pen0" fill="none" x1="247" x2="247" y1="7" y2="62"/>
      <line class="pen0" fill="none" x1="810" x2="810" y1="7" y2="62"/>
      <line class="pen0" fill="none" x1="1187" x2="1187" y1="7" y2="62"/>
      <line class="pen0" fill="none" x1="2614" x2="2614" y1="7" y2="62"/>
      <line class="pen0" fill="none" x1="3971" x2="3971" y1="7" y2="62"/>
      <line class="pen1" fill="none" x1="0" x2="0" y1="62" y2="1000"/>
      <line class="pen1" fill="none" x1="247" x2="247" y1="62" y2="1000"/>
      <line class="pen1" fill="none" x1="810" x2="810" y1="62" y2="1000"/>
      <line class="pen1" fill="none" x1="1187" x2="1187" y1="62" y2="1000"/>
      <line class="pen1" fill="none" x1="2614" x2="2614" y1="62" y2="1000"/>
      <line class="pen1" fill="none" x1="3971" x2="3971" y1="62" y2="1000"/>
      <line class="pen0" fill="none" x1="4" x2="3975" y1="3" y2="3"/>
      <line class="pen0" fill="none" x1="4" x2="3975" y1="58" y2="58"/>
      <line class="pen1" fill="none" x1="4" x2="3975" y1="996" y2="996"/>
   </g>
   <g>
      <text class="font3" fill="rgb(0,0,0)" stroke="none" style="dominant-baseline: text-before-edge;" x="4006 4033 4043 4068 4092 4102 4127 4152 4184 4209 4233 4246 4271 4293" xml:lang="en" xml:space="preserve" y="5">FindingContext</text><text class="font3" fill="rgb(0,0,0)" stroke="none" style="dominant-baseline: text-before-edge;" x="4362 4390 4415 4453 4478 4503 4518 4542 4552 4584 4609 4634 4646 4671 4694" xml:lang="en" xml:space="preserve" y="5">TemporalContext</text></g>
   <g>
      <text class="font3" fill="rgb(0,0,0)" stroke="none" style="dominant-baseline: text-before-edge;" x="4695 4724 4749 4774 4784 4809 4832 4844 4876 4901 4911 4935 4948 4958 4982 5007 5030 5054 5064 5089 5121 5146 5171 5183 5208 5231" xml:lang="en" xml:space="preserve" y="5">SubjectRelationshipContext</text></g>
   <g>
      <text class="font3" fill="rgb(0,0,0)" stroke="none" style="dominant-baseline: text-before-edge;" x="5260 5292 5317 5341 5354 5379 5401 5414 5443 5468 5506 5544 5569 5584" xml:lang="en" xml:space="preserve" y="5">ContextSummary</text></g>
   <g>
      <text class="font3" fill="rgb(0,0,0)" stroke="none" style="dominant-baseline: text-before-edge;" x="3980 4005 4029 4054 4079 4104 4128 4153 4178 4203" xml:lang="en" xml:space="preserve" y="61">410516002|</text><text class="font3" fill="rgb(0,0,0)" stroke="none" style="dominant-baseline: text-before-edge;" x="3980 4009 4034 4059 4091 4115 4128 4157 4182 4205 4230 4254" xml:lang="en" xml:space="preserve" y="117">Known Absent</text></g>
   <g>
      <text class="font3" fill="rgb(0,0,0)" stroke="none" style="dominant-baseline: text-before-edge;" x="4344 4369 4394 4419 4443 4468 4493 4518 4542 4567" xml:lang="en" xml:space="preserve" y="61">410511007|</text><text class="font3" fill="rgb(0,0,0)" stroke="none" style="dominant-baseline: text-before-edge;" x="4344 4377 4401 4416 4431 4456 4481 4493 4506 4531 4546 4558 4588 4612 4635" xml:lang="en" xml:space="preserve" y="117">Current or Past</text></g>
   <g>
      <text class="font3" fill="rgb(0,0,0)" stroke="none" style="dominant-baseline: text-before-edge;" x="4737 4762 4786 4811 4836 4861 4885 4910 4935 4960" xml:lang="en" xml:space="preserve" y="61">303071001|</text><text class="font3" fill="rgb(0,0,0)" stroke="none" style="dominant-baseline: text-before-edge;" x="4737 4766 4791 4806 4829 4854 4878 4891 4900 4925 4938 4950 4975 5000 5012 5039 5064 5102 5112 5122" xml:lang="en" xml:space="preserve" y="117">Person in the Family</text></g>
   <g>
      <text class="font3" fill="rgb(0,0,0)" stroke="none" style="dominant-baseline: text-before-edge;" x="5214 5247 5271 5299 5324 5362 5372 5381 5402 5435 5444 5467 5479 5504 5519 5540 5575" xml:lang="en" xml:space="preserve" y="61">NoFamilyHistoryOf</text></g>
   <g>
      <line class="pen0" fill="none" x1="3969" x2="3969" y1="0" y2="60"/>
      <line class="pen0" fill="none" x1="4334" x2="4334" y1="4" y2="60"/>
      <line class="pen0" fill="none" x1="4726" x2="4726" y1="4" y2="60"/>
      <line class="pen0" fill="none" x1="5204" x2="5204" y1="4" y2="60"/>
      <line class="pen0" fill="none" x1="5653" x2="5653" y1="4" y2="60"/>
      <line class="pen1" fill="none" x1="3969" x2="3969" y1="60" y2="1001"/>
      <line class="pen1" fill="none" x1="4334" x2="4334" y1="60" y2="1001"/>
      <line class="pen1" fill="none" x1="4726" x2="4726" y1="60" y2="1001"/>
      <line class="pen1" fill="none" x1="5204" x2="5204" y1="60" y2="1001"/>
      <line class="pen1" fill="none" x1="5653" x2="5653" y1="60" y2="1001"/>
      <line class="pen0" fill="none" x1="3973" x2="5657" y1="0" y2="0"/>
      <line class="pen0" fill="none" x1="3973" x2="5657" y1="55" y2="55"/>
      <line class="pen1" fill="none" x1="3973" x2="5657" y1="997" y2="997"/>
   </g>
   <g/>
</svg>