<?xml version="1.0" encoding="UTF-8"?>

<!DOCTYPE svg
  PUBLIC "-//W3C//DTD SVG 1.0//EN" "http://www.w3.org/TR/2001/REC-SVG-20010904/DTD/svg10.dtd">
<svg xmlns="http://www.w3.org/2000/svg" xmlns:xlink="http://www.w3.org/1999/xlink" fill-rule="evenodd" height="1.4433333333333334in" preserveAspectRatio="none" stroke-linecap="round" viewBox="0 0 2795 866" width="4.658333333333333in">
   <style type="text/css">
.brush0 { fill: rgb(255,255,255); }
.pen0 { stroke: rgb(0,0,0); stroke-width: 1; stroke-linejoin: round; }
.pen1 { stroke: rgb(0,0,0); stroke-width: 6; stroke-linejoin: round; }
.brush1 { fill: none; }
.font0 { font-size: 89px; font-family: Arial; }
.font1 { font-weight: bold; font-size: 16px; font-family: System, sans-serif; }
.font2 { font-weight: bold; font-size: 89px; font-family: Arial; }
</style>
   <g>
      <polygon class="pen1 brush1" points="2,188 2,853 2783,853 2783,188"/>
   </g>
   <g>
      <text class="font0" fill="rgb(0,0,0)" stroke="none" style="dominant-baseline: alphabetic;" x="66 121 177 232 287 342 397 453 479 540 573 629 679 707 763 795 851 879 934 963 991 1051 1107 1190 1246 1279 1305 1333 1366 1421 1476 1531 1587 1642 1697 1752 1807 1863 1889 1950 1972 2027 2083 2104 2160 2215" xml:lang="en" xml:space="preserve" y="319">7162000|Fracture of Femur|:{363698007|Finding </text><text class="font0" fill="rgb(0,0,0)" stroke="none" style="dominant-baseline: alphabetic;" x="66 133 155 183 239 265 322 378 433 488 543 598 654 710 735 802 830 863 919 969 996 1052 1085 1141 1169 1224 1253 1281 1352 1407 1462 1518 1546 1601 1630" xml:lang="en" xml:space="preserve" y="439">Site|=2812003|Structure of Head of </text><text class="font0" fill="rgb(0,0,0)" stroke="none" style="dominant-baseline: alphabetic;" x="66 127 183 266 322 355 381 409 464 519 575 630 685 740 795 851 906 962 987 1042 1098 1126 1182 1214 1270 1292 1314 1342 1391 1417 1475 1531 1586 1641 1696 1752 1807 1863 1888 1943 1998 2027 2054 2080 2113 2141 2197 2252 2307 2363 2418 2473 2528 2583 2639" xml:lang="en" xml:space="preserve" y="559">Femur|:2727410003|Laterality|=7771000|Left|},116676008|</text><text class="font0" fill="rgb(0,0,0)" stroke="none" style="dominant-baseline: alphabetic;" x="66 149 205 238 293 348 404 426 482 537 586 612 670 698 754 809 864 919 975 1030 1085 1141 1167 1228 1261 1317 1367 1395 1451 1483 1539 1567" xml:lang="en" xml:space="preserve" y="679">Morphology|= 73737008|Fracture, </text><text class="font0" fill="rgb(0,0,0)" stroke="none" style="dominant-baseline: alphabetic;" x="66 133 189 211 243 299 321 347 375 430 485 540 595 651 706 761 816 872 898 964 1020 1069 1125 1158 1180 1208 1257 1283 1341 1397 1453 1508 1563 1618 1673 1729 1785 1810 1876 1932 1981 2037 2070" xml:lang="en" xml:space="preserve" y="798">Spiral|,246112005|Severity|=24484000|Severe</text><polygon class="pen1 brush1" points="2,2 2,189 1034,189 1034,2"/></g>
   <g>
      <text class="font2" fill="rgb(0,0,0)" stroke="none" style="dominant-baseline: alphabetic;" x="66 133 172 233 294 322 378" xml:lang="en" xml:space="preserve" y="134">Problem</text></g>
</svg>