<?xml version="1.0" encoding="UTF-8"?>

<!DOCTYPE svg
  PUBLIC "-//W3C//DTD SVG 1.0//EN" "http://www.w3.org/TR/2001/REC-SVG-20010904/DTD/svg10.dtd">
<svg xmlns="http://www.w3.org/2000/svg" xmlns:xlink="http://www.w3.org/1999/xlink" fill-rule="evenodd" height="5.916666666666667in" preserveAspectRatio="none" stroke-linecap="round" viewBox="0 0 3442 3550" width="5.736666666666666in">
   <style type="text/css">
.brush0 { fill: rgb(255,255,255); }
.pen0 { stroke: rgb(0,0,0); stroke-width: 1; stroke-linejoin: round; }
.pen1 { stroke: rgb(0,0,0); stroke-width: 6; stroke-linejoin: round; }
.brush1 { fill: none; }
.font0 { font-size: 89px; font-family: Arial; }
.font1 { font-weight: bold; font-size: 16px; font-family: System, sans-serif; }
.font2 { font-weight: bold; font-size: 89px; font-family: Arial; }
.font3 { font-style: italic; font-size: 89px; font-family: Arial; }
.brush2 { fill: rgb(0,0,0); }
</style>
   <g>
      <polygon class="pen1 brush1" points="3,188 3,1094 3055,1094 3055,188"/>
   </g>
   <g>
      <text class="font0" fill="rgb(0,0,0)" stroke="none" style="dominant-baseline: alphabetic;" x="67 122 178 233 288 343 398 454 509 565 591 662 717 773 801 857 906" xml:lang="en" xml:space="preserve" y="320">413350009|Context</text><text class="font0" fill="rgb(0,0,0)" stroke="none" style="dominant-baseline: alphabetic;" x="934" xml:lang="en" xml:space="preserve" y="320">-</text><text class="font0" fill="rgb(0,0,0)" stroke="none" style="dominant-baseline: alphabetic;" x="967 1039 1094 1150 1205 1260 1315 1370 1426 1454 1482 1543 1565 1620 1676 1698 1754 1809 1835" xml:lang="en" xml:space="preserve" y="320">Dependent Finding|:</text><text class="font0" fill="rgb(0,0,0)" stroke="none" style="dominant-baseline: alphabetic;" x="151 207 262 317 372 428 483 538 593 649 675 736 758 813 869 890 946 1001 1028 1100 1155 1211 1239 1295 1344 1372 1398 1456 1512 1567 1622 1677 1732 1788 1843 1898 1954 1980 2046 2101 2157 2228 2284 2312 2378 2434 2484 2539 2595 2623 2649" xml:lang="en" xml:space="preserve" y="440">408729009|Finding Context|=410516002|Known Absent|,</text><text class="font0" fill="rgb(0,0,0)" stroke="none" style="dominant-baseline: alphabetic;" x="151 207 262 317 372 428 483 538 593 649 675 736 791 874 930 986 1018 1073 1095 1123 1195 1250 1306 1334 1390 1439 1467 1493 1551 1607 1662 1717 1772 1827 1883 1938 1993 2049 2074 2146 2202 2235 2268 2323 2379 2407 2435 2491 2524 2552 2618 2674 2724 2752 2778" xml:lang="en" xml:space="preserve" y="559">408731000|Temporal Context|=410511007|Current or Past|,</text><text class="font0" fill="rgb(0,0,0)" stroke="none" style="dominant-baseline: alphabetic;" x="151 207 262 317 372 428 483 538 593 649 675 741 796 852 873 929 979 1007 1035 1107 1163 1184 1240 1268 1289 1345 1401 1450 1506 1527 1583 1611 1682 1737 1793 1821 1877 1926 1954 1980 2038 2093 2149 2204 2259 2314 2369 2425 2480 2536 2562 2628 2684 2717 2766 2822 2878 2906 2927 2983" xml:lang="en" xml:space="preserve" y="679">408732007|Subject Relationship Context|=303071001|Person in </text><text class="font0" fill="rgb(0,0,0)" stroke="none" style="dominant-baseline: alphabetic;" x="67 95 151 207 235 295 351 435 456 478 527 553 581" xml:lang="en" xml:space="preserve" y="799">the Family|, </text><text class="font0" fill="rgb(0,0,0)" stroke="none" style="dominant-baseline: alphabetic;" x="151 207 262 317 372 428 483 538 593 649 675 742 792 841 897 947 968 1024 1051 1106 1162 1190 1251 1273 1328 1384 1405 1461 1516 1542 1600 1655 1711 1766 1821 1876 1931 1987 2043 2068 2140 2189 2245 2301 2334 2362 2417 2473 2523 2544 2599 2655 2681" xml:lang="en" xml:space="preserve" y="919">246090004|Associated Finding|=38341003|Hypertension|:</text><text class="font0" fill="rgb(0,0,0)" stroke="none" style="dominant-baseline: alphabetic;" x="713 769 824 880 935 990 1045 1100 1156 1212 1237 1304 1360 1409 1465 1498 1520 1548 1597 1623 1681 1737 1792 1847 1902 1958 2013 2068 2124 2150 2216 2272 2321 2377 2410" xml:lang="en" xml:space="preserve" y="1038">246112005|Severity|=24484000|Severe</text><polygon class="pen1 brush1" points="3,3 3,189 606,189 606,3"/></g>
   <g>
      <text class="font2" fill="rgb(0,0,0)" stroke="none" style="dominant-baseline: alphabetic;" x="67 134 173 234 295 323 379" xml:lang="en" xml:space="preserve" y="134">Problem</text><polygon class="pen1 brush1" points="1794,3351 1794,3537 3049,3537 3049,3351"/></g>
   <g>
      <text class="font0" fill="rgb(0,0,0)" stroke="none" style="dominant-baseline: alphabetic;" x="1857 1929 1985 2046 2101 2185 2207 2229 2278 2350 2372 2422 2450 2506 2539 2588 2666" xml:lang="en" xml:space="preserve" y="3482">NoFamilyHistoryOf</text><polygon class="pen1 brush1" points="1794,3165 1794,3352 2846,3352 2846,3165"/></g>
   <g>
      <text class="font3" fill="rgb(0,0,0)" stroke="none" style="dominant-baseline: alphabetic;" x="1857 1929 1984 2040 2068 2124 2174 2201 2268 2324 2406 2488 2544 2577" xml:lang="en" xml:space="preserve" y="3297">ContextSummary</text><polygon class="pen1 brush1" points="1794,2188 1794,2375 3197,2375 3197,2188"/></g>
   <g>
      <text class="font0" fill="rgb(0,0,0)" stroke="none" style="dominant-baseline: alphabetic;" x="1857 1912 1968 2023 2078 2133 2188 2244 2299 2355 2381 2452 2508 2541 2574 2629 2685 2713 2741 2797 2830 2857 2924 2980 3030" xml:lang="en" xml:space="preserve" y="2320">410511007|Current or Past</text><polygon class="pen1 brush1" points="1794,2003 1794,2189 2722,2189 2722,2003"/></g>
   <g>
      <text class="font3" fill="rgb(0,0,0)" stroke="none" style="dominant-baseline: alphabetic;" x="1857 1918 1974 2056 2112 2168 2201 2257 2279 2350 2405 2461 2488 2544 2594" xml:lang="en" xml:space="preserve" y="2134">TemporalContext</text><polygon class="pen1 brush1" points="1794,1609 1794,1796 3201,1796 3201,1609"/></g>
   <g>
      <text class="font0" fill="rgb(0,0,0)" stroke="none" style="dominant-baseline: alphabetic;" x="1857 1912 1968 2023 2078 2133 2188 2244 2299 2355 2383 2409 2437 2503 2558 2614 2685 2741 2769 2835 2891 2940 2996 3052" xml:lang="en" xml:space="preserve" y="1741">410516002 | Known Absent</text><polygon class="pen1 brush1" points="1794,1422 1794,1608 2674,1608 2674,1422"/></g>
   <g>
      <text class="font3" fill="rgb(0,0,0)" stroke="none" style="dominant-baseline: alphabetic;" x="1857 1918 1940 1996 2052 2073 2128 2184 2255 2310 2366 2394 2450 2500" xml:lang="en" xml:space="preserve" y="1553">FindingContext</text><polygon class="pen1 brush1" points="1794,2765 1794,2952 3429,2952 3429,2765"/></g>
   <g>
      <text class="font0" fill="rgb(0,0,0)" stroke="none" style="dominant-baseline: alphabetic;" x="1857 1912 1968 2023 2078 2133 2188 2244 2299 2355 2381 2447 2503 2536 2585 2641 2697 2725 2746 2802 2830 2857 2912 2968 2996 3057 3113 3196 3218 3240" xml:lang="en" xml:space="preserve" y="2897">303071001|Person in the Family</text><polygon class="pen1 brush1" points="1794,2578 1794,2764 3141,2764 3141,2578"/></g>
   <g>
      <text class="font3" fill="rgb(0,0,0)" stroke="none" style="dominant-baseline: alphabetic;" x="1857 1924 1980 2001 2057 2107 2135 2206 2262 2283 2339 2367 2388 2444 2500 2549 2605 2626 2682 2753 2808 2863 2891 2947 2997" xml:lang="en" xml:space="preserve" y="2709">SujectRelationshipContext</text><path class="pen0 brush2" d="M 1533,1093  L 1533,1515 1529,1511 1752,1511 1753,1511 1755,1512 1756,1514 1756,1515 1756,1517 1755,1518 1753,1519 1752,1519 1529,1519 1527,1519 1526,1518 1525,1517 1525,1515 1525,1093 1525,1092 1526,1090 1527,1089 1529,1089 1531,1089 1532,1090 1533,1092 1533,1093 1533,1093 z M 1744,1490  L 1794,1515 1744,1540 1744,1490 z" fill-rule="nonzero"/></g>
   <g>
      <path class="pen0 brush2" d="M 1533,1093  L 1533,2672 1529,2667 1752,2667 1753,2668 1755,2669 1756,2670 1756,2672 1756,2673 1755,2674 1753,2675 1752,2676 1529,2676 1527,2675 1526,2674 1525,2673 1525,2672 1525,1093 1525,1092 1526,1090 1527,1089 1529,1089 1531,1089 1532,1090 1533,1092 1533,1093 1533,1093 z M 1744,2647  L 1794,2672 1744,2697 1744,2647 z" fill-rule="nonzero"/>
   </g>
   <g>
      <path class="pen0 brush2" d="M 1533,1093  L 1533,2097 1529,2092 1752,2092 1753,2093 1755,2094 1756,2095 1756,2097 1756,2098 1755,2099 1753,2100 1752,2101 1529,2101 1527,2100 1526,2099 1525,2098 1525,2097 1525,1093 1525,1092 1526,1090 1527,1089 1529,1089 1531,1089 1532,1090 1533,1092 1533,1093 1533,1093 z M 1744,2072  L 1794,2097 1744,2122 1744,2072 z" fill-rule="nonzero"/>
   </g>
   <g>
      <path class="pen0 brush2" d="M 1533,1093  L 1533,3259 1529,3255 1752,3255 1753,3255 1755,3256 1756,3257 1756,3259 1756,3261 1755,3262 1753,3263 1752,3263 1529,3263 1527,3263 1526,3262 1525,3261 1525,3259 1525,1093 1525,1092 1526,1090 1527,1089 1529,1089 1531,1089 1532,1090 1533,1092 1533,1093 1533,1093 z M 1744,3234  L 1794,3259 1744,3284 1744,3234 z" fill-rule="nonzero"/>
   </g>
   <g/>
</svg>