<?xml version="1.0" encoding="UTF-8"?>

<!DOCTYPE svg
  PUBLIC "-//W3C//DTD SVG 1.0//EN" "http://www.w3.org/TR/2001/REC-SVG-20010904/DTD/svg10.dtd">
<svg xmlns="http://www.w3.org/2000/svg" xmlns:xlink="http://www.w3.org/1999/xlink" fill-rule="evenodd" height="4.946666666666666in" preserveAspectRatio="none" stroke-linecap="round" viewBox="0 0 4727 2968" width="7.878333333333333in">
   <style type="text/css">
.brush0 { fill: rgb(255,255,255); }
.pen0 { stroke: rgb(0,0,0); stroke-width: 1; stroke-linejoin: round; }
.pen1 { stroke: rgb(0,0,0); stroke-width: 6; stroke-linejoin: round; }
.brush1 { fill: none; }
.font0 { font-size: 89px; font-family: Arial; }
.font1 { font-weight: bold; font-size: 16px; font-family: System, sans-serif; }
.font2 { font-weight: bold; font-size: 89px; font-family: Arial; }
.font3 { font-style: italic; font-size: 89px; font-family: Arial; }
.brush2 { fill: rgb(0,0,0); }
</style>
   <g>
      <polygon class="pen1 brush1" points="1915,188 1915,374 3339,374 3339,188"/>
   </g>
   <g>
      <text class="font0" fill="rgb(0,0,0)" stroke="none" style="dominant-baseline: alphabetic;" x="1979 2034 2090 2145 2200 2255 2310 2366 2394 2420 2448 2509 2542 2598 2648 2676 2732 2765 2821 2848 2903 2932 2959 3020 3076 3159 3215" xml:lang="en" xml:space="preserve" y="319">7162000 | Fracture of Femur</text><polygon class="pen1 brush1" points="1915,2 1915,189 2946,189 2946,2"/></g>
   <g>
      <text class="font2" fill="rgb(0,0,0)" stroke="none" style="dominant-baseline: alphabetic;" x="1979 2046 2085 2146 2207 2235 2291" xml:lang="en" xml:space="preserve" y="134">Problem</text><polygon class="pen1 brush1" points="1915,188 1915,374 3339,374 3339,188"/></g>
   <g>
      <text class="font0" fill="rgb(0,0,0)" stroke="none" style="dominant-baseline: alphabetic;" x="1979 2034 2090 2145 2200 2255 2310 2366 2394 2420 2448 2509 2542 2598 2648 2676 2732 2765 2821 2848 2903 2932 2959 3020 3076 3159 3215" xml:lang="en" xml:space="preserve" y="319">7162000 | Fracture of Femur</text><polygon class="pen1 brush1" points="1915,2 1915,189 2946,189 2946,2"/></g>
   <g>
      <text class="font2" fill="rgb(0,0,0)" stroke="none" style="dominant-baseline: alphabetic;" x="1979 2046 2085 2146 2207 2235 2291" xml:lang="en" xml:space="preserve" y="134">Problem</text><polygon class="pen1 brush1" points="3359,2769 3359,2956 4614,2956 4614,2769"/></g>
   <g>
      <text class="font0" fill="rgb(0,0,0)" stroke="none" style="dominant-baseline: alphabetic;" x="3423 3478 3534 3589 3644 3699 3754 3810 3866 3894 3920 3948 4014 4070 4119 4175 4208" xml:lang="en" xml:space="preserve" y="2900">24484000 | Severe</text><polygon class="pen1 brush1" points="3359,2584 3359,2770 3878,2770 3878,2584"/></g>
   <g>
      <text class="font3" fill="rgb(0,0,0)" stroke="none" style="dominant-baseline: alphabetic;" x="3423 3490 3546 3567 3622" xml:lang="en" xml:space="preserve" y="2715">Value</text><polygon class="pen1 brush1" points="3359,2769 3359,2956 4614,2956 4614,2769"/></g>
   <g>
      <text class="font0" fill="rgb(0,0,0)" stroke="none" style="dominant-baseline: alphabetic;" x="3423 3478 3534 3589 3644 3699 3754 3810 3866 3894 3920 3948 4014 4070 4119 4175 4208" xml:lang="en" xml:space="preserve" y="2900">24484000 | Severe</text><polygon class="pen1 brush1" points="3359,2584 3359,2770 3878,2770 3878,2584"/></g>
   <g>
      <text class="font3" fill="rgb(0,0,0)" stroke="none" style="dominant-baseline: alphabetic;" x="3423 3490 3546 3567 3622" xml:lang="en" xml:space="preserve" y="2715">Value</text><polygon class="pen1 brush1" points="3359,1607 3359,1793 4714,1793 4714,1607"/></g>
   <g>
      <text class="font0" fill="rgb(0,0,0)" stroke="none" style="dominant-baseline: alphabetic;" x="3423 3478 3534 3589 3644 3699 3754 3810 3866 3894 3920 3948 4009 4042 4098 4148 4175 4231 4264 4320 4348 4376 4442 4498 4520 4553 4608" xml:lang="en" xml:space="preserve" y="1738">73737008 | Fracture, Spiral</text><polygon class="pen1 brush1" points="3359,1421 3359,1608 3878,1608 3878,1421"/></g>
   <g>
      <text class="font3" fill="rgb(0,0,0)" stroke="none" style="dominant-baseline: alphabetic;" x="3423 3490 3546 3567 3622" xml:lang="en" xml:space="preserve" y="1553">Value</text><polygon class="pen1 brush1" points="3359,1607 3359,1793 4714,1793 4714,1607"/></g>
   <g>
      <text class="font0" fill="rgb(0,0,0)" stroke="none" style="dominant-baseline: alphabetic;" x="3423 3478 3534 3589 3644 3699 3754 3810 3866 3894 3920 3948 4009 4042 4098 4148 4175 4231 4264 4320 4348 4376 4442 4498 4520 4553 4608" xml:lang="en" xml:space="preserve" y="1738">73737008 | Fracture, Spiral</text><polygon class="pen1 brush1" points="3359,1421 3359,1608 3878,1608 3878,1421"/></g>
   <g>
      <text class="font3" fill="rgb(0,0,0)" stroke="none" style="dominant-baseline: alphabetic;" x="3423 3490 3546 3567 3622" xml:lang="en" xml:space="preserve" y="1553">Value</text><polygon class="pen1 brush1" points="2978,1027 2978,1214 4309,1214 4309,1027"/></g>
   <g>
      <text class="font0" fill="rgb(0,0,0)" stroke="none" style="dominant-baseline: alphabetic;" x="3042 3097 3153 3208 3263 3318 3373 3429 3484 3540 3568 3594 3622 3705 3761 3793 3848 3904 3960 3981 4036 4091" xml:lang="en" xml:space="preserve" y="1159">116676008 | Morphology</text><polygon class="pen1 brush1" points="2978,840 2978,1026 3496,1026 3496,840"/></g>
   <g>
      <text class="font3" fill="rgb(0,0,0)" stroke="none" style="dominant-baseline: alphabetic;" x="3042 3109 3137 3165 3198 3220 3276 3332 3359" xml:lang="en" xml:space="preserve" y="971">Attribute</text><polygon class="pen1 brush1" points="2978,1027 2978,1214 4309,1214 4309,1027"/></g>
   <g>
      <text class="font0" fill="rgb(0,0,0)" stroke="none" style="dominant-baseline: alphabetic;" x="3042 3097 3153 3208 3263 3318 3373 3429 3484 3540 3568 3594 3622 3705 3761 3793 3848 3904 3960 3981 4036 4091" xml:lang="en" xml:space="preserve" y="1159">116676008 | Morphology</text><polygon class="pen1 brush1" points="2978,840 2978,1026 3496,1026 3496,840"/></g>
   <g>
      <text class="font3" fill="rgb(0,0,0)" stroke="none" style="dominant-baseline: alphabetic;" x="3042 3109 3137 3165 3198 3220 3276 3332 3359" xml:lang="en" xml:space="preserve" y="971">Attribute</text><polygon class="pen1 brush1" points="3009,2184 3009,2370 4434,2370 4434,2184"/></g>
   <g>
      <text class="font0" fill="rgb(0,0,0)" stroke="none" style="dominant-baseline: alphabetic;" x="3073 3128 3184 3239 3294 3349 3404 3460 3515 3571 3599 3625 3653 3719 3775 3824 3880 3913 3935 3963" xml:lang="en" xml:space="preserve" y="2315">246112005 | Severity</text><polygon class="pen1 brush1" points="3009,1996 3009,2183 3528,2183 3528,1996"/></g>
   <g>
      <text class="font3" fill="rgb(0,0,0)" stroke="none" style="dominant-baseline: alphabetic;" x="3073 3140 3168 3196 3229 3251 3307 3363 3390" xml:lang="en" xml:space="preserve" y="2128">Attribute</text><polygon class="pen1 brush1" points="3009,2184 3009,2370 4434,2370 4434,2184"/></g>
   <g>
      <text class="font0" fill="rgb(0,0,0)" stroke="none" style="dominant-baseline: alphabetic;" x="3073 3128 3184 3239 3294 3349 3404 3460 3515 3571 3599 3625 3653 3719 3775 3824 3880 3913 3935 3963" xml:lang="en" xml:space="preserve" y="2315">246112005 | Severity</text><polygon class="pen1 brush1" points="3009,1996 3009,2183 3528,2183 3528,1996"/></g>
   <g>
      <text class="font3" fill="rgb(0,0,0)" stroke="none" style="dominant-baseline: alphabetic;" x="3073 3140 3168 3196 3229 3251 3307 3363 3390" xml:lang="en" xml:space="preserve" y="2128">Attribute</text><polygon class="pen1 brush1" points="153,1027 153,1214 1903,1214 1903,1027"/></g>
   <g>
      <text class="font0" fill="rgb(0,0,0)" stroke="none" style="dominant-baseline: alphabetic;" x="217 272 328 383 438 493 548 604 659 715 743 769 797 858 880 935 991 1012 1068 1123 1151 1218 1239 1267" xml:lang="en" xml:space="preserve" y="1159">363698007 | Finding Site</text><polygon class="pen1 brush1" points="153,840 153,1026 671,1026 671,840"/></g>
   <g>
      <text class="font3" fill="rgb(0,0,0)" stroke="none" style="dominant-baseline: alphabetic;" x="217 284 312 340 373 395 451 507 534" xml:lang="en" xml:space="preserve" y="971">Attribute</text><polygon class="pen1 brush1" points="153,1027 153,1214 1903,1214 1903,1027"/></g>
   <g>
      <text class="font0" fill="rgb(0,0,0)" stroke="none" style="dominant-baseline: alphabetic;" x="217 272 328 383 438 493 548 604 659 715 743 769 797 858 880 935 991 1012 1068 1123 1151 1218 1239 1267" xml:lang="en" xml:space="preserve" y="1159">363698007 | Finding Site</text><polygon class="pen1 brush1" points="153,840 153,1026 671,1026 671,840"/></g>
   <g>
      <text class="font3" fill="rgb(0,0,0)" stroke="none" style="dominant-baseline: alphabetic;" x="217 284 312 340 373 395 451 507 534" xml:lang="en" xml:space="preserve" y="971">Attribute</text><polygon class="pen1 brush1" points="553,1606 553,1793 2433,1793 2433,1606"/></g>
   <g>
      <text class="font0" fill="rgb(0,0,0)" stroke="none" style="dominant-baseline: alphabetic;" x="617 672 728 783 838 893 948 1004 1032 1058 1086 1153 1181 1214 1270 1320 1347 1403 1436 1492 1519 1574 1603 1631 1703 1758 1813 1869 1897 1952 1981 2009 2070 2125 2208 2264" xml:lang="en" xml:space="preserve" y="1738">2812003 | Structure of Head of Femur</text><polygon class="pen1 brush1" points="553,1421 553,1607 1071,1607 1071,1421"/></g>
   <g>
      <text class="font3" fill="rgb(0,0,0)" stroke="none" style="dominant-baseline: alphabetic;" x="617 684 740 761 816" xml:lang="en" xml:space="preserve" y="1553">Value</text><polygon class="pen1 brush1" points="553,1606 553,1793 2433,1793 2433,1606"/></g>
   <g>
      <text class="font0" fill="rgb(0,0,0)" stroke="none" style="dominant-baseline: alphabetic;" x="617 672 728 783 838 893 948 1004 1032 1058 1086 1153 1181 1214 1270 1320 1347 1403 1436 1492 1519 1574 1603 1631 1703 1758 1813 1869 1897 1952 1981 2009 2070 2125 2208 2264" xml:lang="en" xml:space="preserve" y="1738">2812003 | Structure of Head of Femur</text><polygon class="pen1 brush1" points="553,1421 553,1607 1071,1607 1071,1421"/></g>
   <g>
      <text class="font3" fill="rgb(0,0,0)" stroke="none" style="dominant-baseline: alphabetic;" x="617 684 740 761 816" xml:lang="en" xml:space="preserve" y="1553">Value</text><polygon class="pen1 brush1" points="934,2184 934,2370 2253,2370 2253,2184"/></g>
   <g>
      <text class="font0" fill="rgb(0,0,0)" stroke="none" style="dominant-baseline: alphabetic;" x="998 1053 1109 1164 1219 1274 1329 1385 1440 1495 1551 1579 1605 1633 1688 1744 1771 1827 1860 1916 1937 1959 1987" xml:lang="en" xml:space="preserve" y="2315">2727410003 | Laterality</text><polygon class="pen1 brush1" points="934,1996 934,2182 1453,2182 1453,1996"/></g>
   <g>
      <text class="font3" fill="rgb(0,0,0)" stroke="none" style="dominant-baseline: alphabetic;" x="998 1065 1093 1121 1154 1176 1232 1288 1315" xml:lang="en" xml:space="preserve" y="2128">Attribute</text><polygon class="pen1 brush1" points="934,2184 934,2370 2253,2370 2253,2184"/></g>
   <g>
      <text class="font0" fill="rgb(0,0,0)" stroke="none" style="dominant-baseline: alphabetic;" x="998 1053 1109 1164 1219 1274 1329 1385 1440 1495 1551 1579 1605 1633 1688 1744 1771 1827 1860 1916 1937 1959 1987" xml:lang="en" xml:space="preserve" y="2315">2727410003 | Laterality</text><polygon class="pen1 brush1" points="934,1996 934,2182 1453,2182 1453,1996"/></g>
   <g>
      <text class="font3" fill="rgb(0,0,0)" stroke="none" style="dominant-baseline: alphabetic;" x="998 1065 1093 1121 1154 1176 1232 1288 1315" xml:lang="en" xml:space="preserve" y="2128">Attribute</text><polygon class="pen1 brush1" points="1296,2769 1296,2955 2620,2955 2620,2769"/></g>
   <g>
      <text class="font0" fill="rgb(0,0,0)" stroke="none" style="dominant-baseline: alphabetic;" x="1360 1415 1471 1526 1581 1636 1691 1747 1775 1801 1829 1884 1939 1968" xml:lang="en" xml:space="preserve" y="2900">7771000 | Left</text><polygon class="pen1 brush1" points="1296,2584 1296,2770 1815,2770 1815,2584"/></g>
   <g>
      <text class="font3" fill="rgb(0,0,0)" stroke="none" style="dominant-baseline: alphabetic;" x="1360 1427 1483 1504 1559" xml:lang="en" xml:space="preserve" y="2715">Value</text><polygon class="pen1 brush1" points="1296,2769 1296,2955 2620,2955 2620,2769"/></g>
   <g>
      <text class="font0" fill="rgb(0,0,0)" stroke="none" style="dominant-baseline: alphabetic;" x="1360 1415 1471 1526 1581 1636 1691 1747 1775 1801 1829 1884 1939 1968" xml:lang="en" xml:space="preserve" y="2900">7771000 | Left</text><polygon class="pen1 brush1" points="1296,2584 1296,2770 1815,2770 1815,2584"/></g>
   <g>
      <text class="font3" fill="rgb(0,0,0)" stroke="none" style="dominant-baseline: alphabetic;" x="1360 1427 1483 1504 1559" xml:lang="en" xml:space="preserve" y="2715">Value</text><path class="pen0 brush2" d="M 379,1506  L 474,1506 476,1507 477,1508 478,1509 479,1511 478,1512 477,1514 476,1514 474,1515 379,1515 377,1514 376,1514 375,1512 374,1511 375,1509 376,1508 377,1507 379,1506 379,1506 z M 466,1486  L 516,1511 466,1536 466,1486 z" fill-rule="nonzero"/></g>
   <g>
      <polyline class="pen1" fill="none" points="374,1513 368,1244"/>
   </g>
   <g>
      <path class="pen0 brush2" d="M 379,1506  L 474,1506 476,1507 477,1508 478,1509 479,1511 478,1512 477,1514 476,1514 474,1515 379,1515 377,1514 376,1514 375,1512 374,1511 375,1509 376,1508 377,1507 379,1506 379,1506 z M 466,1486  L 516,1511 466,1536 466,1486 z" fill-rule="nonzero"/>
   </g>
   <g>
      <polyline class="pen1" fill="none" points="374,1513 368,1244"/>
   </g>
   <g>
      <path class="pen0 brush2" d="M 766,2075  L 862,2075 864,2075 865,2076 866,2078 866,2079 866,2081 865,2082 864,2083 862,2084 766,2084 764,2083 763,2082 762,2081 762,2079 762,2078 763,2076 764,2075 766,2075 766,2075 z M 854,2054  L 904,2079 854,2104 854,2054 z" fill-rule="nonzero"/>
   </g>
   <g>
      <polyline class="pen1" fill="none" points="762,2081 756,1813"/>
   </g>
   <g>
      <path class="pen0 brush2" d="M 766,2075  L 862,2075 864,2075 865,2076 866,2078 866,2079 866,2081 865,2082 864,2083 862,2084 766,2084 764,2083 763,2082 762,2081 762,2079 762,2078 763,2076 764,2075 766,2075 766,2075 z M 854,2054  L 904,2079 854,2104 854,2054 z" fill-rule="nonzero"/>
   </g>
   <g>
      <polyline class="pen1" fill="none" points="762,2081 756,1813"/>
   </g>
   <g>
      <path class="pen0 brush2" d="M 1129,2663  L 1224,2663 1226,2663 1227,2664 1228,2665 1229,2667 1228,2668 1227,2670 1226,2671 1224,2671 1129,2671 1127,2671 1126,2670 1125,2668 1124,2667 1125,2665 1126,2664 1127,2663 1129,2663 1129,2663 z M 1216,2642  L 1266,2667 1216,2692 1216,2642 z" fill-rule="nonzero"/>
   </g>
   <g>
      <polyline class="pen1" fill="none" points="1124,2669 1118,2400"/>
   </g>
   <g>
      <path class="pen0 brush2" d="M 1129,2663  L 1224,2663 1226,2663 1227,2664 1228,2665 1229,2667 1228,2668 1227,2670 1226,2671 1224,2671 1129,2671 1127,2671 1126,2670 1125,2668 1124,2667 1125,2665 1126,2664 1127,2663 1129,2663 1129,2663 z M 1216,2642  L 1266,2667 1216,2692 1216,2642 z" fill-rule="nonzero"/>
   </g>
   <g>
      <polyline class="pen1" fill="none" points="1124,2669 1118,2400"/>
   </g>
   <g>
      <path class="pen0 brush2" d="M 3191,2663  L 3287,2663 3289,2663 3290,2664 3291,2665 3291,2667 3291,2668 3290,2670 3289,2671 3287,2671 3191,2671 3189,2671 3188,2670 3187,2668 3187,2667 3187,2665 3188,2664 3189,2663 3191,2663 3191,2663 z M 3279,2642  L 3329,2667 3279,2692 3279,2642 z" fill-rule="nonzero"/>
   </g>
   <g>
      <polyline class="pen1" fill="none" points="3187,2669 3181,2400"/>
   </g>
   <g>
      <path class="pen0 brush2" d="M 3191,2663  L 3287,2663 3289,2663 3290,2664 3291,2665 3291,2667 3291,2668 3290,2670 3289,2671 3287,2671 3191,2671 3189,2671 3188,2670 3187,2668 3187,2667 3187,2665 3188,2664 3189,2663 3191,2663 3191,2663 z M 3279,2642  L 3329,2667 3279,2692 3279,2642 z" fill-rule="nonzero"/>
   </g>
   <g>
      <polyline class="pen1" fill="none" points="3187,2669 3181,2400"/>
   </g>
   <g>
      <path class="pen0 brush2" d="M 3191,1506  L 3287,1506 3289,1507 3290,1508 3291,1509 3291,1511 3291,1512 3290,1514 3289,1514 3287,1515 3191,1515 3189,1514 3188,1514 3187,1512 3187,1511 3187,1509 3188,1508 3189,1507 3191,1506 3191,1506 z M 3279,1486  L 3329,1511 3279,1536 3279,1486 z" fill-rule="nonzero"/>
   </g>
   <g>
      <polyline class="pen1" fill="none" points="3187,1513 3181,1244"/>
   </g>
   <g>
      <path class="pen0 brush2" d="M 3191,1506  L 3287,1506 3289,1507 3290,1508 3291,1509 3291,1511 3291,1512 3290,1514 3289,1514 3287,1515 3191,1515 3189,1514 3188,1514 3187,1512 3187,1511 3187,1509 3188,1508 3189,1507 3191,1506 3191,1506 z M 3279,1486  L 3329,1511 3279,1536 3279,1486 z" fill-rule="nonzero"/>
   </g>
   <g>
      <polyline class="pen1" fill="none" points="3187,1513 3181,1244"/>
   </g>
   <g>
      <path class="pen0 brush2" d="M 2632,374  L 2632,934 2628,929 2936,929 2937,930 2939,931 2940,932 2940,934 2940,935 2939,936 2937,937 2936,938 2628,938 2626,937 2625,936 2624,935 2623,934 2623,374 2624,372 2625,371 2626,370 2628,370 2629,370 2630,371 2631,372 2632,374 2632,374 z M 2928,909  L 2978,934 2928,959 2928,909 z" fill-rule="nonzero"/>
   </g>
   <g>
      <path class="pen0 brush2" d="M 2632,374  L 2632,2090 2628,2086 2967,2086 2969,2086 2970,2087 2971,2088 2971,2090 2971,2091 2970,2093 2969,2094 2967,2094 2628,2094 2626,2094 2625,2093 2624,2091 2623,2090 2623,374 2624,372 2625,371 2626,370 2628,370 2629,370 2630,371 2631,372 2632,374 2632,374 z M 2959,2065  L 3009,2090 2959,2115 2959,2065 z" fill-rule="nonzero"/>
   </g>
   <g>
      <path class="pen0 brush2" d="M 1915,286  L 3,286 7,281 7,934 3,929 111,929 112,930 114,931 115,932 115,934 115,935 114,936 112,937 111,938 3,938 1,937 0,936 -1,935 -2,934 -2,281 -1,280 0,278 1,278 3,277 1915,277 1917,278 1918,278 1919,280 1919,281 1919,283 1918,284 1917,285 1915,286 1915,286 z M 103,909  L 153,934 103,959 103,909 z" fill-rule="nonzero"/>
   </g>
   <g/>
</svg>