<?xml version="1.0" encoding="UTF-8" standalone="no"?>
<!DOCTYPE svg PUBLIC "-//W3C//DTD SVG 1.1//EN" "http://www.w3.org/Graphics/SVG/1.1/DTD/svg11.dtd">
<!-- Generated by Microsoft Visio, SVG Export inferred_relationships.svg inferred_example -->
<svg xmlns="http://www.w3.org/2000/svg" xmlns:xlink="http://www.w3.org/1999/xlink" xmlns:ev="http://www.w3.org/2001/xml-events"
		xmlns:v="http://schemas.microsoft.com/visio/2003/SVGExtensions/" width="3.53458in" height="4.05723in"
		viewBox="0 0 254.49 292.121" xml:space="preserve" color-interpolation-filters="sRGB" class="st11">
	<v:documentProperties v:langID="1033" v:viewMarkup="false">
		<v:userDefs>
			<v:ud v:nameU="msvNoAutoConnect" v:val="VT0(1):26"/>
		</v:userDefs>
	</v:documentProperties>

	<style type="text/css">
	<![CDATA[
		.st1 {fill:#4bacc6;stroke:#000000;stroke-linecap:round;stroke-linejoin:round;stroke-width:0.24}
		.st2 {fill:#ffffff;font-family:Calibri;font-size:0.833336em;font-weight:bold}
		.st3 {font-size:1em}
		.st4 {marker-start:url(#mrkr4-25);stroke:#92d050;stroke-linecap:round;stroke-linejoin:round;stroke-width:2.5}
		.st5 {fill:#92d050;fill-opacity:1;stroke:#92d050;stroke-opacity:1;stroke-width:0.49800796812749}
		.st6 {fill:#ffffff;stroke:none;stroke-linecap:butt;stroke-width:7.2}
		.st7 {fill:#000000;font-family:Calibri;font-size:0.666664em}
		.st8 {marker-end:url(#mrkr3-47);stroke:#7030a0;stroke-linecap:round;stroke-linejoin:round;stroke-width:2.25}
		.st9 {fill:#7030a0;fill-opacity:1;stroke:#7030a0;stroke-opacity:1;stroke-width:0.47169811320755}
		.st10 {fill:#ffffff;stroke:none;stroke-linecap:butt}
		.st11 {fill:none;fill-rule:evenodd;font-size:12px;overflow:visible;stroke-linecap:square;stroke-miterlimit:3}
	]]>
	</style>

	<defs id="Markers">
		<g id="lend4">
			<path d="M 2 1 L 0 0 L 2 -1 L 2 1 " style="stroke:none"/>
		</g>
		<marker id="mrkr4-25" class="st5" v:arrowType="4" v:arrowSize="2" v:setback="3.872" refX="3.872" orient="auto"
				markerUnits="strokeWidth" overflow="visible">
			<use xlink:href="#lend4" transform="scale(2.008) "/>
		</marker>
		<g id="lend3">
			<path d="M 2 1 L 0 0 L 2 -1 " style="stroke-linecap:round;stroke-linejoin:round;fill:none"/>
		</g>
		<marker id="mrkr3-47" class="st9" v:arrowType="3" v:arrowSize="2" orient="auto" markerUnits="strokeWidth"
				overflow="visible">
			<use xlink:href="#lend3" transform="scale(-2.12,-2.12) "/>
		</marker>
	</defs>
	<g v:mID="4" v:index="2" v:groupContext="foregroundPage">
		<title>inferred_relationships</title>
		<v:pageProperties v:drawingScale="1" v:pageScale="1" v:drawingUnits="19" v:shadowOffsetX="9" v:shadowOffsetY="-9"/>
		<v:layer v:name="Connector" v:index="0"/>
		<v:layer v:name="Flowchart" v:index="1"/>
		<g id="shape1-1" v:mID="1" v:groupContext="shape" v:layerMember="0;1" transform="translate(18.12,-224.501)">
			<title>On-page reference</title>
			<desc>Pain</desc>
			<v:userDefs>
				<v:ud v:nameU="visVersion" v:prompt="" v:val="VT0(15):26"/>
			</v:userDefs>
			<v:textBlock v:margins="rect(2,2,2,2)"/>
			<v:textRect cx="24.75" cy="267.371" width="49.51" height="49.5"/>
			<path d="M0 267.37 A24.75 24.75 0 1 1 49.5 267.37 A24.75 24.75 0 0 1 0 267.37 Z" class="st1"/>
			<text x="15.71" y="270.37" class="st2" v:langID="1033"><v:paragraph v:horizAlign="1"/><v:tabList/>Pain</text>		</g>
		<g id="shape2-4" v:mID="2" v:groupContext="shape" v:layerMember="0;1" transform="translate(186.87,-125.501)">
			<title>On-page reference.2</title>
			<desc>Lower limb structure</desc>
			<v:userDefs>
				<v:ud v:nameU="visVersion" v:prompt="" v:val="VT0(15):26"/>
			</v:userDefs>
			<v:textBlock v:margins="rect(2,2,2,2)"/>
			<v:textRect cx="24.75" cy="267.371" width="49.51" height="49.5"/>
			<path d="M0 267.37 A24.75 24.75 0 1 1 49.5 267.37 A24.75 24.75 0 0 1 0 267.37 Z" class="st1"/>
			<text x="11.93" y="258.37" class="st2" v:langID="1033"><v:paragraph v:horizAlign="1"/><v:tabList/>Lower <tspan
						x="15.54" dy="1.2em" class="st3">limb </tspan><tspan x="5.76" dy="1.2em" class="st3">structure</tspan></text>		</g>
		<g id="shape3-9" v:mID="3" v:groupContext="shape" v:layerMember="0;1" transform="translate(186.87,-18.12)">
			<title>On-page reference.3</title>
			<desc>Calf structure</desc>
			<v:userDefs>
				<v:ud v:nameU="visVersion" v:prompt="" v:val="VT0(15):26"/>
			</v:userDefs>
			<v:textBlock v:margins="rect(2,2,2,2)"/>
			<v:textRect cx="24.75" cy="267.371" width="49.51" height="49.5"/>
			<path d="M0 267.37 A24.75 24.75 0 1 1 49.5 267.37 A24.75 24.75 0 0 1 0 267.37 Z" class="st1"/>
			<text x="16.83" y="264.37" class="st2" v:langID="1033"><v:paragraph v:horizAlign="1"/><v:tabList/>Calf <tspan x="5.76"
						dy="1.2em" class="st3">structure</tspan></text>		</g>
		<g id="shape4-13" v:mID="4" v:groupContext="shape" v:layerMember="0;1" transform="translate(18.12,-18.12)">
			<title>On-page reference.4</title>
			<desc>Pain in calf</desc>
			<v:userDefs>
				<v:ud v:nameU="visVersion" v:prompt="" v:val="VT0(15):26"/>
			</v:userDefs>
			<v:textBlock v:margins="rect(2,2,2,2)"/>
			<v:textRect cx="24.75" cy="267.371" width="49.51" height="49.5"/>
			<path d="M0 267.37 A24.75 24.75 0 0 1 49.5 267.37 A24.75 24.75 0 1 1 0 267.37 Z" class="st1"/>
			<text x="2.17" y="270.37" class="st2" v:langID="1033"><v:paragraph v:horizAlign="1"/><v:tabList/>Pain in calf</text>		</g>
		<g id="shape5-16" v:mID="5" v:groupContext="shape" v:layerMember="0;1" transform="translate(18.12,-125.501)">
			<title>On-page reference.6</title>
			<desc>Pain in lower limb</desc>
			<v:userDefs>
				<v:ud v:nameU="visVersion" v:prompt="" v:val="VT0(15):26"/>
			</v:userDefs>
			<v:textBlock v:margins="rect(2,2,2,2)"/>
			<v:textRect cx="24.75" cy="267.371" width="49.51" height="49.5"/>
			<path d="M0 267.37 A24.75 24.75 0 1 1 49.5 267.37 A24.75 24.75 0 0 1 0 267.37 Z" class="st1"/>
			<text x="10.67" y="264.37" class="st2" v:langID="1033"><v:paragraph v:horizAlign="1"/><v:tabList/>Pain in <tspan
						x="2.48" dy="1.2em" class="st3">lower limb</tspan></text>		</g>
		<g id="shape6-20" v:mID="6" v:groupContext="shape" v:layerMember="0" transform="translate(33.87,-125.501)">
			<title>Dynamic connector</title>
			<desc>Is A</desc>
			<v:textBlock v:margins="rect(4,4,4,4)"/>
			<v:textRect cx="9" cy="321.061" width="40" height="17.6036"/>
			<path d="M9 301.8 L9 302.16 L9 350" class="st4"/>
			<rect v:rectContext="textBkgnd" x="3.20889" y="316.261" width="11.5821" height="9.59985" class="st6"/>
			<text x="3.21" y="323.46" class="st7" v:langID="1033"><v:paragraph v:horizAlign="1"/><v:tabList/>Is A</text>		</g>
		<g id="shape7-28" v:mID="7" v:groupContext="shape" v:layerMember="0" transform="translate(202.62,-125.501)">
			<title>Dynamic connector.7</title>
			<desc>Is A</desc>
			<v:textBlock v:margins="rect(4,4,4,4)"/>
			<v:textRect cx="9" cy="321.061" width="40" height="17.6036"/>
			<path d="M9 301.8 L9 302.16 L9 350" class="st4"/>
			<rect v:rectContext="textBkgnd" x="3.20889" y="316.261" width="11.5821" height="9.59985" class="st6"/>
			<text x="3.21" y="323.46" class="st7" v:langID="1033"><v:paragraph v:horizAlign="1"/><v:tabList/>Is A</text>		</g>
		<g id="shape8-35" v:mID="8" v:groupContext="shape" v:layerMember="0" transform="translate(33.87,-224.501)">
			<title>Dynamic connector.11</title>
			<desc>Is A</desc>
			<v:textBlock v:margins="rect(4,4,4,4)"/>
			<v:textRect cx="9" cy="316.871" width="40" height="17.6036"/>
			<path d="M9 301.8 L9 302.16 L9 341.62" class="st4"/>
			<rect v:rectContext="textBkgnd" x="3.20889" y="312.071" width="11.5821" height="9.59985" class="st6"/>
			<text x="3.21" y="319.27" class="st7" v:langID="1033"><v:paragraph v:horizAlign="1"/><v:tabList/>Is A</text>		</g>
		<g id="shape9-42" v:mID="9" v:groupContext="shape" v:layerMember="0" transform="translate(67.62,-33.87)">
			<title>Dynamic connector.12</title>
			<desc>Finding site</desc>
			<v:textBlock v:margins="rect(4,4,4,4)"/>
			<v:textRect cx="59.625" cy="283.121" width="46.97" height="17.6036"/>
			<path d="M0 283.12 L119.25 283.12" class="st8"/>
			<rect v:rectContext="textBkgnd" x="41.0474" y="278.321" width="37.1555" height="9.59985" class="st6"/>
			<text x="41.05" y="285.52" class="st7" v:langID="1033"><v:paragraph v:horizAlign="1"/><v:tabList/>Finding site</text>		</g>
		<g id="shape10-50" v:mID="10" v:groupContext="shape" v:layerMember="0" transform="translate(67.62,-141.251)">
			<title>Dynamic connector.13</title>
			<desc>Finding site</desc>
			<v:textBlock v:margins="rect(4,4,4,4)"/>
			<v:textRect cx="59.625" cy="283.121" width="46.97" height="17.6036"/>
			<path d="M0 283.12 L119.25 283.12" class="st8"/>
			<rect v:rectContext="textBkgnd" x="41.0474" y="278.321" width="37.1555" height="9.59985" class="st10"/>
			<text x="41.05" y="285.52" class="st7" v:langID="1033"><v:paragraph v:horizAlign="1"/><v:tabList/>Finding site</text>		</g>
	</g>
</svg>
