<?xml version="1.0" encoding="UTF-8" standalone="no"?>
<!DOCTYPE svg PUBLIC "-//W3C//DTD SVG 1.1//EN" "http://www.w3.org/Graphics/SVG/1.1/DTD/svg11.dtd">
<!-- Generated by Microsoft Visio, SVG Export meningitis_polyhierarchy.svg meningitis_SCT_example -->
<svg xmlns="http://www.w3.org/2000/svg" xmlns:xlink="http://www.w3.org/1999/xlink" xmlns:ev="http://www.w3.org/2001/xml-events"
		xmlns:v="http://schemas.microsoft.com/visio/2003/SVGExtensions/" width="4.5884in" height="4.87833in"
		viewBox="0 0 330.365 351.24" xml:space="preserve" color-interpolation-filters="sRGB" class="st9">
	<v:documentProperties v:langID="1033" v:viewMarkup="false">
		<v:userDefs>
			<v:ud v:nameU="msvNoAutoConnect" v:val="VT0(1):26"/>
		</v:userDefs>
	</v:documentProperties>

	<style type="text/css">
	<![CDATA[
		.st1 {fill:#4bacc6;stroke:#000000;stroke-linecap:round;stroke-linejoin:round;stroke-width:0.24}
		.st2 {fill:#ffffff;font-family:Calibri;font-size:0.833336em;font-weight:bold}
		.st3 {font-size:1em}
		.st4 {marker-start:url(#mrkr4-28);stroke:#92d050;stroke-linecap:round;stroke-linejoin:round;stroke-width:2.5}
		.st5 {fill:#92d050;fill-opacity:1;stroke:#92d050;stroke-opacity:1;stroke-width:0.49800796812749}
		.st6 {fill:#ffffff;stroke:none;stroke-linecap:butt}
		.st7 {fill:#000000;font-family:Calibri;font-size:0.666664em}
		.st8 {fill:#ffffff;stroke:none;stroke-linecap:butt;stroke-width:7.2}
		.st9 {fill:none;fill-rule:evenodd;font-size:12px;overflow:visible;stroke-linecap:square;stroke-miterlimit:3}
	]]>
	</style>

	<defs id="Markers">
		<g id="lend4">
			<path d="M 2 1 L 0 0 L 2 -1 L 2 1 " style="stroke:none"/>
		</g>
		<marker id="mrkr4-28" class="st5" v:arrowType="4" v:arrowSize="2" v:setback="3.872" refX="3.872" orient="auto"
				markerUnits="strokeWidth" overflow="visible">
			<use xlink:href="#lend4" transform="scale(2.008) "/>
		</marker>
	</defs>
	<g v:mID="5" v:index="3" v:groupContext="foregroundPage">
		<title>meningitis_SCT_example</title>
		<v:pageProperties v:drawingScale="1" v:pageScale="1" v:drawingUnits="19" v:shadowOffsetX="9" v:shadowOffsetY="-9"/>
		<v:layer v:name="Connector" v:index="0"/>
		<v:layer v:name="Flowchart" v:index="1"/>
		<g id="shape21-1" v:mID="21" v:groupContext="shape" v:layerMember="0;1" transform="translate(22.62,-130.62)">
			<title>On-page reference</title>
			<desc>Meningococcal infectious disease</desc>
			<v:userDefs>
				<v:ud v:nameU="visVersion" v:prompt="" v:val="VT0(15):26"/>
			</v:userDefs>
			<v:textBlock v:margins="rect(2,2,2,2)"/>
			<v:textRect cx="36" cy="315.24" width="72" height="72"/>
			<path d="M0 315.24 A36 36 0 0 1 72 315.24 A36 36 0 1 1 0 315.24 Z" class="st1"/>
			<text x="4.8" y="306.24" class="st2" v:langID="1033"><v:paragraph v:horizAlign="1"/><v:tabList/>Meningococcal <tspan
						x="15.57" dy="1.2em" class="st3">infectious </tspan><tspan x="20.6" dy="1.2em" class="st3">disease</tspan></text>		</g>
		<g id="shape22-6" v:mID="22" v:groupContext="shape" v:layerMember="0;1" transform="translate(18.12,-252.12)">
			<title>On-page reference.2</title>
			<desc>Disease caused by Neisseria</desc>
			<v:userDefs>
				<v:ud v:nameU="visVersion" v:prompt="" v:val="VT0(15):26"/>
			</v:userDefs>
			<v:textBlock v:margins="rect(2,2,2,2)"/>
			<v:textRect cx="40.5" cy="310.74" width="81" height="81"/>
			<path d="M0 310.74 A40.5 40.5 0 0 1 81 310.74 A40.5 40.5 0 1 1 0 310.74 Z" class="st1"/>
			<text x="2.88" y="307.74" class="st2" v:langID="1033"><v:paragraph v:horizAlign="1"/><v:tabList/>Disease caused by <tspan
						x="21.48" dy="1.2em" class="st3">Neisseria</tspan></text>		</g>
		<g id="shape23-10" v:mID="23" v:groupContext="shape" v:layerMember="0;1" transform="translate(121.62,-252.12)">
			<title>On-page reference.3</title>
			<desc>Bacterial meningitis</desc>
			<v:userDefs>
				<v:ud v:nameU="visVersion" v:prompt="" v:val="VT0(15):26"/>
			</v:userDefs>
			<v:textBlock v:margins="rect(2,2,2,2)"/>
			<v:textRect cx="40.5" cy="310.74" width="81" height="81"/>
			<path d="M0 310.74 A40.5 40.5 0 0 1 81 310.74 A40.5 40.5 0 1 1 0 310.74 Z" class="st1"/>
			<text x="22.18" y="307.74" class="st2" v:langID="1033"><v:paragraph v:horizAlign="1"/><v:tabList/>Bacterial <tspan
						x="18.77" dy="1.2em" class="st3">meningitis</tspan></text>		</g>
		<g id="shape24-14" v:mID="24" v:groupContext="shape" v:layerMember="0;1" transform="translate(181.745,-130.62)">
			<title>On-page reference.4</title>
			<desc>Gram-negative bacterial meningitis</desc>
			<v:userDefs>
				<v:ud v:nameU="visVersion" v:prompt="" v:val="VT0(15):26"/>
			</v:userDefs>
			<v:textBlock v:margins="rect(2,2,2,2)"/>
			<v:textRect cx="36" cy="315.24" width="72" height="72"/>
			<path d="M0 315.24 A36 36 0 1 1 72 315.24 A36 36 0 0 1 0 315.24 Z" class="st1"/>
			<text x="5.09" y="306.24" class="st2" v:langID="1033"><v:paragraph v:horizAlign="1"/><v:tabList/>Gram-negative <tspan
						x="17.8" dy="1.2em" class="st3">bacterial </tspan><tspan x="14.27" dy="1.2em" class="st3">meningitis</tspan></text>		</g>
		<g id="shape25-19" v:mID="25" v:groupContext="shape" v:layerMember="0;1" transform="translate(100.745,-18.12)">
			<title>On-page reference.6</title>
			<desc>Meningococcal meningitis</desc>
			<v:userDefs>
				<v:ud v:nameU="visVersion" v:prompt="" v:val="VT0(15):26"/>
			</v:userDefs>
			<v:textBlock v:margins="rect(2,2,2,2)"/>
			<v:textRect cx="36" cy="315.24" width="72" height="72"/>
			<path d="M0 315.24 A36 36 0 0 1 72 315.24 A36 36 0 1 1 0 315.24 Z" class="st1"/>
			<text x="4.8" y="312.24" class="st2" v:langID="1033"><v:paragraph v:horizAlign="1"/><v:tabList/>Meningococcal <tspan
						x="14.27" dy="1.2em" class="st3">meningitis</tspan></text>		</g>
		<g id="shape26-23" v:mID="26" v:groupContext="shape" v:layerMember="0" transform="translate(217.745,-130.62)">
			<title>Dynamic connector</title>
			<desc>Is A</desc>
			<v:textBlock v:margins="rect(4,4,4,4)"/>
			<v:textRect cx="0" cy="411.99" width="40" height="17.6036"/>
			<path d="M0 360.92 L0 361.28 L0 427.74 L-45 427.74" class="st4"/>
			<rect v:rectContext="textBkgnd" x="-5.79111" y="407.19" width="11.5821" height="9.59985" class="st6"/>
			<text x="-5.79" y="414.39" class="st7" v:langID="1033"><v:paragraph v:horizAlign="1"/><v:tabList/>Is A</text>		</g>
		<g id="shape27-31" v:mID="27" v:groupContext="shape" v:layerMember="0" transform="translate(49.62,-252.12)">
			<title>Dynamic connector.7</title>
			<desc>Is A</desc>
			<v:textBlock v:margins="rect(4,4,4,4)"/>
			<v:textRect cx="9" cy="375.99" width="40" height="17.6036"/>
			<path d="M9 360.92 L9 361.28 L9 400.74" class="st4"/>
			<rect v:rectContext="textBkgnd" x="3.20889" y="371.19" width="11.5821" height="9.59985" class="st8"/>
			<text x="3.21" y="378.39" class="st7" v:langID="1033"><v:paragraph v:horizAlign="1"/><v:tabList/>Is A</text>		</g>
		<g id="shape28-38" v:mID="28" v:groupContext="shape" v:layerMember="0" transform="translate(58.62,-130.62)">
			<title>Dynamic connector.11</title>
			<desc>Is A</desc>
			<v:textBlock v:margins="rect(4,4,4,4)"/>
			<v:textRect cx="0" cy="410.552" width="40" height="17.6036"/>
			<path d="M0 360.92 L0 361.28 L0 427.74 L42.12 427.74" class="st4"/>
			<rect v:rectContext="textBkgnd" x="-5.79111" y="405.753" width="11.5821" height="9.59985" class="st6"/>
			<text x="-5.79" y="412.95" class="st7" v:langID="1033"><v:paragraph v:horizAlign="1"/><v:tabList/>Is A</text>		</g>
		<g id="shape31-45" v:mID="31" v:groupContext="shape" v:layerMember="0;1" transform="translate(231.245,-252.12)">
			<title>On-page reference.31</title>
			<desc>Disease caused by Gram-negative bacteria</desc>
			<v:userDefs>
				<v:ud v:nameU="visVersion" v:prompt="" v:val="VT0(15):26"/>
			</v:userDefs>
			<v:textBlock v:margins="rect(2,2,2,2)"/>
			<v:textRect cx="40.5" cy="310.74" width="81" height="81"/>
			<path d="M0 310.74 A40.5 40.5 0 0 1 81 310.74 A40.5 40.5 0 1 1 0 310.74 Z" class="st1"/>
			<text x="2.88" y="301.74" class="st2" v:langID="1033"><v:paragraph v:horizAlign="1"/><v:tabList/>Disease caused by <tspan
						x="9.59" dy="1.2em" class="st3">Gram</tspan>-negative <tspan x="23.53" dy="1.2em" class="st3">bacteria</tspan></text>		</g>
		<g id="shape32-50" v:mID="32" v:groupContext="shape" v:layerMember="0" transform="translate(162.12,-252.12)">
			<title>Dynamic connector.32</title>
			<desc>Is A</desc>
			<v:textBlock v:margins="rect(4,4,4,4)"/>
			<v:textRect cx="0" cy="403.802" width="40" height="17.6036"/>
			<path d="M0 360.92 L0 361.28 L0 436.74 L19.62 436.74" class="st4"/>
			<rect v:rectContext="textBkgnd" x="-5.79111" y="399.003" width="11.5821" height="9.59985" class="st6"/>
			<text x="-5.79" y="406.2" class="st7" v:langID="1033"><v:paragraph v:horizAlign="1"/><v:tabList/>Is A</text>		</g>
		<g id="shape33-57" v:mID="33" v:groupContext="shape" v:layerMember="0" transform="translate(271.745,-252.12)">
			<title>Dynamic connector.33</title>
			<desc>Is A</desc>
			<v:textBlock v:margins="rect(4,4,4,4)"/>
			<v:textRect cx="0" cy="402.99" width="40" height="17.6036"/>
			<path d="M0 360.92 L0 361.28 L0 436.74 L-18 436.74" class="st4"/>
			<rect v:rectContext="textBkgnd" x="-5.79111" y="398.19" width="11.5821" height="9.59985" class="st6"/>
			<text x="-5.79" y="405.39" class="st7" v:langID="1033"><v:paragraph v:horizAlign="1"/><v:tabList/>Is A</text>		</g>
	</g>
</svg>
