<?xml version="1.0" encoding="UTF-8" standalone="no"?>
<!DOCTYPE svg PUBLIC "-//W3C//DTD SVG 1.1//EN" "http://www.w3.org/Graphics/SVG/1.1/DTD/svg11.dtd">
<!-- Generated by Microsoft Visio, SVG Export stated_relationships.svg stated_example -->
<svg xmlns="http://www.w3.org/2000/svg" xmlns:xlink="http://www.w3.org/1999/xlink" xmlns:ev="http://www.w3.org/2001/xml-events"
		xmlns:v="http://schemas.microsoft.com/visio/2003/SVGExtensions/" width="4.40958in" height="3.68223in"
		viewBox="0 0 317.49 265.121" xml:space="preserve" color-interpolation-filters="sRGB" class="st11">
	<v:documentProperties v:langID="1033" v:viewMarkup="false">
		<v:userDefs>
			<v:ud v:nameU="msvNoAutoConnect" v:val="VT0(1):26"/>
		</v:userDefs>
	</v:documentProperties>

	<style type="text/css">
	<![CDATA[
		.st1 {fill:#4bacc6;stroke:#000000;stroke-linecap:round;stroke-linejoin:round;stroke-width:0.24}
		.st2 {fill:#ffffff;font-family:Calibri;font-size:0.833336em;font-weight:bold}
		.st3 {font-size:1em}
		.st4 {marker-start:url(#mrkr4-23);stroke:#92d050;stroke-linecap:round;stroke-linejoin:round;stroke-width:2.5}
		.st5 {fill:#92d050;fill-opacity:1;stroke:#92d050;stroke-opacity:1;stroke-width:0.49800796812749}
		.st6 {fill:#ffffff;stroke:none;stroke-linecap:butt;stroke-width:7.2}
		.st7 {fill:#000000;font-family:Calibri;font-size:0.666664em}
		.st8 {fill:#ffffff;stroke:none;stroke-linecap:butt}
		.st9 {marker-end:url(#mrkr3-45);stroke:#7030a0;stroke-linecap:round;stroke-linejoin:round;stroke-width:2.25}
		.st10 {fill:#7030a0;fill-opacity:1;stroke:#7030a0;stroke-opacity:1;stroke-width:0.47169811320755}
		.st11 {fill:none;fill-rule:evenodd;font-size:12px;overflow:visible;stroke-linecap:square;stroke-miterlimit:3}
	]]>
	</style>

	<defs id="Markers">
		<g id="lend4">
			<path d="M 2 1 L 0 0 L 2 -1 L 2 1 " style="stroke:none"/>
		</g>
		<marker id="mrkr4-23" class="st5" v:arrowType="4" v:arrowSize="2" v:setback="3.872" refX="3.872" orient="auto"
				markerUnits="strokeWidth" overflow="visible">
			<use xlink:href="#lend4" transform="scale(2.008) "/>
		</marker>
		<g id="lend3">
			<path d="M 2 1 L 0 0 L 2 -1 " style="stroke-linecap:round;stroke-linejoin:round;fill:none"/>
		</g>
		<marker id="mrkr3-45" class="st10" v:arrowType="3" v:arrowSize="2" orient="auto" markerUnits="strokeWidth"
				overflow="visible">
			<use xlink:href="#lend3" transform="scale(-2.12,-2.12) "/>
		</marker>
	</defs>
	<g v:mID="0" v:index="1" v:groupContext="foregroundPage">
		<title>stated_relationships</title>
		<v:pageProperties v:drawingScale="1" v:pageScale="1" v:drawingUnits="19" v:shadowOffsetX="9" v:shadowOffsetY="-9"/>
		<v:layer v:name="Connector" v:index="0"/>
		<v:layer v:name="Flowchart" v:index="1"/>
		<g id="shape1-1" v:mID="1" v:groupContext="shape" v:layerMember="0;1" transform="translate(18.12,-186.131)">
			<title>On-page reference</title>
			<desc>Pain</desc>
			<v:userDefs>
				<v:ud v:nameU="visVersion" v:prompt="" v:val="VT0(15):26"/>
			</v:userDefs>
			<v:textBlock v:margins="rect(2,2,2,2)"/>
			<v:textRect cx="30.435" cy="234.686" width="60.87" height="60.87"/>
			<path d="M0 234.69 A30.435 30.435 0 1 1 60.87 234.69 A30.435 30.435 0 1 1 -0 234.69 Z" class="st1"/>
			<text x="21.39" y="237.69" class="st2" v:langID="1033"><v:paragraph v:horizAlign="1"/><v:tabList/>Pain</text>		</g>
		<g id="shape2-4" v:mID="2" v:groupContext="shape" v:layerMember="0;1" transform="translate(238.5,-125.501)">
			<title>On-page reference.2</title>
			<desc>Lower limb structure</desc>
			<v:userDefs>
				<v:ud v:nameU="visVersion" v:prompt="" v:val="VT0(15):26"/>
			</v:userDefs>
			<v:textBlock v:margins="rect(2,2,2,2)"/>
			<v:textRect cx="30.435" cy="234.686" width="60.87" height="60.87"/>
			<path d="M0 234.69 A30.435 30.435 0 0 1 60.87 234.69 A30.435 30.435 0 1 1 0 234.69 Z" class="st1"/>
			<text x="7.28" y="231.69" class="st2" v:langID="1033"><v:paragraph v:horizAlign="1"/><v:tabList/>Lower limb <tspan
						x="11.44" dy="1.2em" class="st3">structure</tspan></text>		</g>
		<g id="shape3-8" v:mID="3" v:groupContext="shape" v:layerMember="0;1" transform="translate(238.5,-18.12)">
			<title>On-page reference.3</title>
			<desc>Calf structure</desc>
			<v:userDefs>
				<v:ud v:nameU="visVersion" v:prompt="" v:val="VT0(15):26"/>
			</v:userDefs>
			<v:textBlock v:margins="rect(2,2,2,2)"/>
			<v:textRect cx="30.435" cy="234.686" width="60.87" height="60.87"/>
			<path d="M0 234.69 A30.435 30.435 0 1 1 60.87 234.69 A30.435 30.435 0 0 1 0 234.69 Z" class="st1"/>
			<text x="2.39" y="237.69" class="st2" v:langID="1033"><v:paragraph v:horizAlign="1"/><v:tabList/>Calf structure</text>		</g>
		<g id="shape4-11" v:mID="4" v:groupContext="shape" v:layerMember="0;1" transform="translate(18.12,-18.12)">
			<title>On-page reference.4</title>
			<desc>Pain in calf</desc>
			<v:userDefs>
				<v:ud v:nameU="visVersion" v:prompt="" v:val="VT0(15):26"/>
			</v:userDefs>
			<v:textBlock v:margins="rect(2,2,2,2)"/>
			<v:textRect cx="30.435" cy="234.686" width="60.87" height="60.87"/>
			<path d="M0 234.69 A30.435 30.435 0 1 1 60.87 234.69 A30.435 30.435 0 1 1 -0 234.69 Z" class="st1"/>
			<text x="7.85" y="237.69" class="st2" v:langID="1033"><v:paragraph v:horizAlign="1"/><v:tabList/>Pain in calf</text>		</g>
		<g id="shape6-14" v:mID="6" v:groupContext="shape" v:layerMember="0;1" transform="translate(90,-125.501)">
			<title>On-page reference.6</title>
			<desc>Pain in lower limb</desc>
			<v:userDefs>
				<v:ud v:nameU="visVersion" v:prompt="" v:val="VT0(15):26"/>
			</v:userDefs>
			<v:textBlock v:margins="rect(2,2,2,2)"/>
			<v:textRect cx="30.435" cy="234.686" width="60.87" height="60.87"/>
			<path d="M0 234.69 A30.435 30.435 0 0 1 60.87 234.69 A30.435 30.435 0 1 1 0 234.69 Z" class="st1"/>
			<text x="3.29" y="231.69" class="st2" v:langID="1033"><v:paragraph v:horizAlign="1"/><v:tabList/>Pain in lower <tspan
						x="21.23" dy="1.2em" class="st3">limb</tspan></text>		</g>
		<g id="shape8-18" v:mID="8" v:groupContext="shape" v:layerMember="0" transform="translate(39.555,-186.131)">
			<title>Dynamic connector</title>
			<desc>Is A</desc>
			<v:textBlock v:margins="rect(4,4,4,4)"/>
			<v:textRect cx="9" cy="318.691" width="40" height="17.6036"/>
			<path d="M9 274.8 L9 275.16 L9 372.26" class="st4"/>
			<rect v:rectContext="textBkgnd" x="3.20889" y="313.891" width="11.5821" height="9.59985" class="st6"/>
			<text x="3.21" y="321.09" class="st7" v:langID="1033"><v:paragraph v:horizAlign="1"/><v:tabList/>Is A</text>		</g>
		<g id="shape10-26" v:mID="10" v:groupContext="shape" v:layerMember="0" transform="translate(259.935,-125.501)">
			<title>Dynamic connector.10</title>
			<desc>Is A</desc>
			<v:textBlock v:margins="rect(4,4,4,4)"/>
			<v:textRect cx="9" cy="288.376" width="40" height="17.6036"/>
			<path d="M9 274.8 L9 275.16 L9 311.63" class="st4"/>
			<rect v:rectContext="textBkgnd" x="3.20889" y="283.576" width="11.5821" height="9.59985" class="st8"/>
			<text x="3.21" y="290.78" class="st7" v:langID="1033"><v:paragraph v:horizAlign="1"/><v:tabList/>Is A</text>		</g>
		<g id="shape11-33" v:mID="11" v:groupContext="shape" v:layerMember="0" transform="translate(78.99,-216.566)">
			<title>Dynamic connector.11</title>
			<desc>Is A</desc>
			<v:textBlock v:margins="rect(4,4,4,4)"/>
			<v:textRect cx="35.82" cy="265.121" width="40" height="17.6036"/>
			<path d="M9.68 265.12 L10.04 265.12 L41.45 265.12 L41.45 295.32" class="st4"/>
			<rect v:rectContext="textBkgnd" x="30.0289" y="260.321" width="11.5821" height="9.59985" class="st6"/>
			<text x="30.03" y="267.52" class="st7" v:langID="1033"><v:paragraph v:horizAlign="1"/><v:tabList/>Is A</text>		</g>
		<g id="shape12-40" v:mID="12" v:groupContext="shape" v:layerMember="0" transform="translate(78.99,-39.555)">
			<title>Dynamic connector.12</title>
			<desc>Finding site</desc>
			<v:textBlock v:margins="rect(4,4,4,4)"/>
			<v:textRect cx="79.755" cy="256.121" width="46.97" height="17.6036"/>
			<path d="M0 256.12 L159.51 256.12" class="st9"/>
			<rect v:rectContext="textBkgnd" x="61.1774" y="251.321" width="37.1555" height="9.59985" class="st6"/>
			<text x="61.18" y="258.52" class="st7" v:langID="1033"><v:paragraph v:horizAlign="1"/><v:tabList/>Finding site</text>		</g>
		<g id="shape13-48" v:mID="13" v:groupContext="shape" v:layerMember="0" transform="translate(150.87,-146.936)">
			<title>Dynamic connector.13</title>
			<desc>Finding site</desc>
			<v:textBlock v:margins="rect(4,4,4,4)"/>
			<v:textRect cx="43.815" cy="256.121" width="46.97" height="17.6036"/>
			<path d="M0 256.12 L87.63 256.12" class="st9"/>
			<rect v:rectContext="textBkgnd" x="25.2374" y="251.321" width="37.1555" height="9.59985" class="st8"/>
			<text x="25.24" y="258.52" class="st7" v:langID="1033"><v:paragraph v:horizAlign="1"/><v:tabList/>Finding site</text>		</g>
	</g>
</svg>
