<?xml version="1.0" encoding="UTF-8" standalone="no"?>
<!DOCTYPE svg PUBLIC "-//W3C//DTD SVG 1.1//EN" "http://www.w3.org/Graphics/SVG/1.1/DTD/svg11.dtd">
<!-- Generated by Microsoft Visio, SVG Export stated_relationships.svg stated_example -->
<svg xmlns="http://www.w3.org/2000/svg" xmlns:xlink="http://www.w3.org/1999/xlink" xmlns:ev="http://www.w3.org/2001/xml-events"
		xmlns:v="http://schemas.microsoft.com/visio/2003/SVGExtensions/" width="4.40958in" height="3.68223in"
		viewBox="0 0 317.49 265.121" xml:space="preserve" color-interpolation-filters="sRGB" class="st10">
	<v:documentProperties v:langID="1033" v:viewMarkup="false">
		<v:userDefs>
			<v:ud v:nameU="msvNoAutoConnect" v:val="VT0(1):26"/>
		</v:userDefs>
	</v:documentProperties>

	<style type="text/css">
	<![CDATA[
		.st1 {fill:#4bacc6;stroke:#000000;stroke-linecap:round;stroke-linejoin:round;stroke-width:0.24}
		.st2 {fill:#ffffff;font-family:Calibri;font-size:0.833336em;font-weight:bold}
		.st3 {font-size:1em}
		.st4 {marker-start:url(#mrkr4-25);stroke:#92d050;stroke-linecap:round;stroke-linejoin:round;stroke-width:2.5}
		.st5 {fill:#92d050;fill-opacity:1;stroke:#92d050;stroke-opacity:1;stroke-width:0.49800796812749}
		.st6 {fill:#ffffff;stroke:none;stroke-linecap:butt;stroke-width:7.2}
		.st7 {fill:#000000;font-family:Calibri;font-size:0.666664em}
		.st8 {marker-end:url(#mrkr3-47);stroke:#7030a0;stroke-linecap:round;stroke-linejoin:round;stroke-width:2.25}
		.st9 {fill:#7030a0;fill-opacity:1;stroke:#7030a0;stroke-opacity:1;stroke-width:0.47169811320755}
		.st10 {fill:none;fill-rule:evenodd;font-size:12px;overflow:visible;stroke-linecap:square;stroke-miterlimit:3}
	]]>
	</style>

	<defs id="Markers">
		<g id="lend4">
			<path d="M 2 1 L 0 0 L 2 -1 L 2 1 " style="stroke:none"/>
		</g>
		<marker id="mrkr4-25" class="st5" v:arrowType="4" v:arrowSize="2" v:setback="3.872" refX="3.872" orient="auto"
				markerUnits="strokeWidth" overflow="visible">
			<use xlink:href="#lend4" transform="scale(2.008) "/>
		</marker>
		<g id="lend3">
			<path d="M 2 1 L 0 0 L 2 -1 " style="stroke-linecap:round;stroke-linejoin:round;fill:none"/>
		</g>
		<marker id="mrkr3-47" class="st9" v:arrowType="3" v:arrowSize="2" orient="auto" markerUnits="strokeWidth"
				overflow="visible">
			<use xlink:href="#lend3" transform="scale(-2.12,-2.12) "/>
		</marker>
	</defs>
	<g v:mID="0" v:index="1" v:groupContext="foregroundPage">
		<title>stated_relationships</title>
		<v:pageProperties v:drawingScale="1" v:pageScale="1" v:drawingUnits="19" v:shadowOffsetX="9" v:shadowOffsetY="-9"/>
		<v:layer v:name="Connector" v:index="0"/>
		<v:layer v:name="Flowchart" v:index="1"/>
		<g id="shape1-1" v:mID="1" v:groupContext="shape" v:layerMember="0;1" transform="translate(18.12,-197.501)">
			<title>On-page reference</title>
			<desc>Pain</desc>
			<v:userDefs>
				<v:ud v:nameU="visVersion" v:prompt="" v:val="VT0(15):26"/>
			</v:userDefs>
			<v:textBlock v:margins="rect(2,2,2,2)"/>
			<v:textRect cx="24.75" cy="240.371" width="49.51" height="49.5"/>
			<path d="M0 240.37 A24.75 24.75 0 1 1 49.5 240.37 A24.75 24.75 0 0 1 0 240.37 Z" class="st1"/>
			<text x="15.71" y="243.37" class="st2" v:langID="1033"><v:paragraph v:horizAlign="1"/><v:tabList/>Pain</text>		</g>
		<g id="shape2-4" v:mID="2" v:groupContext="shape" v:layerMember="0;1" transform="translate(249.87,-125.501)">
			<title>On-page reference.2</title>
			<desc>Lower limb structure</desc>
			<v:userDefs>
				<v:ud v:nameU="visVersion" v:prompt="" v:val="VT0(15):26"/>
			</v:userDefs>
			<v:textBlock v:margins="rect(2,2,2,2)"/>
			<v:textRect cx="24.75" cy="240.371" width="49.51" height="49.5"/>
			<path d="M0 240.37 A24.75 24.75 0 1 1 49.5 240.37 A24.75 24.75 0 0 1 0 240.37 Z" class="st1"/>
			<text x="11.93" y="231.37" class="st2" v:langID="1033"><v:paragraph v:horizAlign="1"/><v:tabList/>Lower <tspan
						x="15.54" dy="1.2em" class="st3">limb </tspan><tspan x="5.76" dy="1.2em" class="st3">structure</tspan></text>		</g>
		<g id="shape3-9" v:mID="3" v:groupContext="shape" v:layerMember="0;1" transform="translate(249.87,-18.12)">
			<title>On-page reference.3</title>
			<desc>Calf structure</desc>
			<v:userDefs>
				<v:ud v:nameU="visVersion" v:prompt="" v:val="VT0(15):26"/>
			</v:userDefs>
			<v:textBlock v:margins="rect(2,2,2,2)"/>
			<v:textRect cx="24.75" cy="240.371" width="49.51" height="49.5"/>
			<path d="M0 240.37 A24.75 24.75 0 1 1 49.5 240.37 A24.75 24.75 0 0 1 0 240.37 Z" class="st1"/>
			<text x="16.83" y="237.37" class="st2" v:langID="1033"><v:paragraph v:horizAlign="1"/><v:tabList/>Calf <tspan x="5.76"
						dy="1.2em" class="st3">structure</tspan></text>		</g>
		<g id="shape4-13" v:mID="4" v:groupContext="shape" v:layerMember="0;1" transform="translate(18.12,-18.12)">
			<title>On-page reference.4</title>
			<desc>Pain in calf</desc>
			<v:userDefs>
				<v:ud v:nameU="visVersion" v:prompt="" v:val="VT0(15):26"/>
			</v:userDefs>
			<v:textBlock v:margins="rect(2,2,2,2)"/>
			<v:textRect cx="24.75" cy="240.371" width="49.51" height="49.5"/>
			<path d="M0 240.37 A24.75 24.75 0 0 1 49.5 240.37 A24.75 24.75 0 1 1 0 240.37 Z" class="st1"/>
			<text x="2.17" y="243.37" class="st2" v:langID="1033"><v:paragraph v:horizAlign="1"/><v:tabList/>Pain in calf</text>		</g>
		<g id="shape6-16" v:mID="6" v:groupContext="shape" v:layerMember="0;1" transform="translate(101.37,-125.501)">
			<title>On-page reference.6</title>
			<desc>Pain in lower limb</desc>
			<v:userDefs>
				<v:ud v:nameU="visVersion" v:prompt="" v:val="VT0(15):26"/>
			</v:userDefs>
			<v:textBlock v:margins="rect(2,2,2,2)"/>
			<v:textRect cx="24.75" cy="240.371" width="49.51" height="49.5"/>
			<path d="M0 240.37 A24.75 24.75 0 1 1 49.5 240.37 A24.75 24.75 0 0 1 0 240.37 Z" class="st1"/>
			<text x="10.67" y="237.37" class="st2" v:langID="1033"><v:paragraph v:horizAlign="1"/><v:tabList/>Pain in <tspan
						x="2.48" dy="1.2em" class="st3">lower limb</tspan></text>		</g>
		<g id="shape8-20" v:mID="8" v:groupContext="shape" v:layerMember="0" transform="translate(33.87,-197.501)">
			<title>Dynamic connector</title>
			<desc>Is A</desc>
			<v:textBlock v:margins="rect(4,4,4,4)"/>
			<v:textRect cx="9" cy="330.061" width="40" height="17.6036"/>
			<path d="M9 274.8 L9 275.16 L9 395" class="st4"/>
			<rect v:rectContext="textBkgnd" x="3.20889" y="325.261" width="11.5821" height="9.59985" class="st6"/>
			<text x="3.21" y="332.46" class="st7" v:langID="1033"><v:paragraph v:horizAlign="1"/><v:tabList/>Is A</text>		</g>
		<g id="shape10-28" v:mID="10" v:groupContext="shape" v:layerMember="0" transform="translate(265.62,-125.501)">
			<title>Dynamic connector.10</title>
			<desc>Is A</desc>
			<v:textBlock v:margins="rect(4,4,4,4)"/>
			<v:textRect cx="9" cy="294.061" width="40" height="17.6036"/>
			<path d="M9 274.8 L9 275.16 L9 323" class="st4"/>
			<rect v:rectContext="textBkgnd" x="3.20889" y="289.261" width="11.5821" height="9.59985" class="st6"/>
			<text x="3.21" y="296.46" class="st7" v:langID="1033"><v:paragraph v:horizAlign="1"/><v:tabList/>Is A</text>		</g>
		<g id="shape11-35" v:mID="11" v:groupContext="shape" v:layerMember="0" transform="translate(67.62,-222.251)">
			<title>Dynamic connector.11</title>
			<desc>Is A</desc>
			<v:textBlock v:margins="rect(4,4,4,4)"/>
			<v:textRect cx="52.875" cy="265.121" width="40" height="17.6036"/>
			<path d="M9.68 265.12 L10.04 265.12 L58.5 265.12 L58.5 312.37" class="st4"/>
			<rect v:rectContext="textBkgnd" x="47.0839" y="260.321" width="11.5821" height="9.59985" class="st6"/>
			<text x="47.08" y="267.52" class="st7" v:langID="1033"><v:paragraph v:horizAlign="1"/><v:tabList/>Is A</text>		</g>
		<g id="shape12-42" v:mID="12" v:groupContext="shape" v:layerMember="0" transform="translate(67.62,-33.87)">
			<title>Dynamic connector.12</title>
			<desc>Finding site</desc>
			<v:textBlock v:margins="rect(4,4,4,4)"/>
			<v:textRect cx="91.125" cy="256.121" width="46.97" height="17.6036"/>
			<path d="M0 256.12 L182.25 256.12" class="st8"/>
			<rect v:rectContext="textBkgnd" x="72.5474" y="251.321" width="37.1555" height="9.59985" class="st6"/>
			<text x="72.55" y="258.52" class="st7" v:langID="1033"><v:paragraph v:horizAlign="1"/><v:tabList/>Finding site</text>		</g>
		<g id="shape13-50" v:mID="13" v:groupContext="shape" v:layerMember="0" transform="translate(150.87,-141.251)">
			<title>Dynamic connector.13</title>
			<desc>Finding site</desc>
			<v:textBlock v:margins="rect(4,4,4,4)"/>
			<v:textRect cx="49.5" cy="256.121" width="46.97" height="17.6036"/>
			<path d="M0 256.12 L99 256.12" class="st8"/>
			<rect v:rectContext="textBkgnd" x="30.9224" y="251.321" width="37.1555" height="9.59985" class="st6"/>
			<text x="30.92" y="258.52" class="st7" v:langID="1033"><v:paragraph v:horizAlign="1"/><v:tabList/>Finding site</text>		</g>
	</g>
</svg>
